{"glyphs":{"¦":{"x_min":359,"x_max":474,"ha":836,"o":"m 474 971 l 474 457 l 359 457 l 359 971 l 474 971 m 474 277 l 474 -237 l 359 -237 l 359 277 l 474 277 "},"Ž":{"x_min":106,"x_max":793,"ha":836,"o":"m 121 1013 l 778 1013 l 778 908 l 249 115 l 793 115 l 793 0 l 106 0 l 106 104 l 620 898 l 121 898 l 121 1013 m 353 1109 l 211 1289 l 305 1289 l 417 1168 l 530 1289 l 625 1289 l 482 1109 l 353 1109 "},"Á":{"x_min":25,"x_max":811,"ha":836,"o":"m 417 892 l 273 374 l 562 374 l 417 892 m 334 1013 l 501 1013 l 811 0 l 669 0 l 594 264 l 239 264 l 166 0 l 25 0 l 334 1013 m 455 1288 l 582 1288 l 426 1109 l 322 1109 l 455 1288 "},"Î":{"x_min":137,"x_max":699,"ha":836,"o":"m 137 1013 l 699 1013 l 699 898 l 487 898 l 487 115 l 699 115 l 699 0 l 137 0 l 137 115 l 349 115 l 349 898 l 137 898 l 137 1013 m 353 1289 l 482 1289 l 625 1109 l 530 1109 l 417 1229 l 305 1109 l 211 1109 l 353 1289 "},"e":{"x_min":83,"x_max":754,"ha":836,"o":"m 754 411 l 754 350 l 213 350 l 213 345 q 278 153 213 221 q 460 86 342 86 q 585 105 520 86 q 725 163 651 124 l 725 39 q 587 -5 653 9 q 459 -20 521 -20 q 182 86 282 -20 q 83 379 83 192 q 180 669 83 560 q 441 778 278 778 q 670 679 586 778 q 754 411 754 581 m 629 448 q 577 614 626 557 q 435 672 527 672 q 287 612 345 672 q 218 447 228 552 l 629 448 "},"»":{"x_min":131,"x_max":757,"ha":836,"o":"m 439 718 l 757 434 l 757 378 l 439 95 l 439 224 l 643 406 l 439 588 l 439 718 m 131 718 l 449 434 l 449 378 l 131 95 l 131 224 l 335 406 l 131 588 l 131 718 "},"∆":{"x_min":-4,"x_max":842,"ha":836,"o":"m -4 0 l 347 965 l 489 965 l 842 0 l -4 0 m 417 826 l 168 117 l 668 117 l 417 826 "},"ò":{"x_min":93,"x_max":743,"ha":836,"o":"m 417 672 q 273 598 322 672 q 225 379 225 524 q 273 160 225 234 q 417 86 322 86 q 562 160 513 86 q 611 379 611 234 q 562 598 611 524 q 417 672 513 672 m 417 778 q 659 675 575 778 q 743 379 743 573 q 659 82 743 184 q 417 -20 576 -20 q 176 82 259 -20 q 93 379 93 184 q 176 675 93 573 q 417 778 259 778 m 323 1111 l 514 856 l 409 856 l 189 1111 l 323 1111 "},"^":{"x_min":49,"x_max":788,"ha":836,"o":"m 478 1013 l 788 635 l 667 635 l 418 903 l 169 635 l 49 635 l 358 1013 l 478 1013 "},"«":{"x_min":81,"x_max":707,"ha":836,"o":"m 399 718 l 399 588 l 194 406 l 399 224 l 399 95 l 81 378 l 81 434 l 399 718 m 707 718 l 707 588 l 502 406 l 707 224 l 707 95 l 389 378 l 389 434 l 707 718 "},"∙":{"x_min":332,"x_max":503,"ha":836,"o":"m 332 586 l 503 586 l 503 379 l 332 379 l 332 586 "},"í":{"x_min":120,"x_max":741,"ha":836,"o":"m 173 760 l 493 760 l 493 97 l 741 97 l 741 0 l 120 0 l 120 97 l 368 97 l 368 663 l 173 663 l 173 760 m 512 1111 l 647 1111 l 426 856 l 322 856 l 512 1111 "},"ˆ":{"x_min":201,"x_max":634,"ha":836,"o":"m 367 1111 l 467 1111 l 634 856 l 539 856 l 417 1022 l 295 856 l 201 856 l 367 1111 "},"µ":{"x_min":132,"x_max":802,"ha":836,"o":"m 132 -290 l 132 760 l 257 760 l 257 287 q 297 140 257 191 q 414 89 338 89 q 544 146 500 89 q 588 316 588 204 l 588 760 l 713 760 l 713 173 q 723 114 713 133 q 757 95 734 95 q 773 98 763 95 q 802 111 782 101 l 802 10 q 753 -12 776 -5 q 707 -20 730 -20 q 639 6 665 -20 q 606 87 614 33 q 529 6 575 33 q 424 -20 484 -20 q 318 5 361 -20 q 245 86 275 31 l 245 -290 l 132 -290 "},"č":{"x_min":132,"x_max":719,"ha":836,"o":"m 719 38 q 615 -5 668 9 q 506 -20 562 -20 q 231 85 330 -20 q 132 379 132 191 q 231 672 132 566 q 506 778 330 778 q 613 763 561 778 q 719 720 666 749 l 719 589 q 619 652 669 632 q 507 672 570 672 q 326 596 389 672 q 264 379 264 520 q 327 162 264 238 q 507 86 390 86 q 623 105 572 86 q 719 168 674 125 l 719 38 m 428 856 l 262 1111 l 356 1111 l 478 944 l 600 1111 l 695 1111 l 528 856 l 428 856 "},"’":{"x_min":314,"x_max":551,"ha":836,"o":"m 380 1055 l 551 1055 l 551 915 l 418 656 l 314 656 l 380 915 l 380 1055 "},"-":{"x_min":241,"x_max":594,"ha":836,"o":"m 241 436 l 594 436 l 594 325 l 241 325 l 241 436 "},"Q":{"x_min":79,"x_max":757,"ha":836,"o":"m 444 -18 q 430 -19 439 -18 q 416 -20 421 -20 q 162 110 246 -20 q 79 505 79 240 q 162 900 79 770 q 417 1031 246 1031 q 673 900 589 1031 q 757 505 757 770 q 710 183 757 305 q 569 13 664 62 l 705 -115 l 603 -183 l 444 -18 m 614 505 q 568 824 614 728 q 417 920 522 920 q 267 824 313 920 q 222 505 222 728 q 267 186 222 282 q 417 91 313 91 q 568 186 522 91 q 614 505 614 281 "},"M":{"x_min":58,"x_max":776,"ha":836,"o":"m 58 1013 l 240 1013 l 415 497 l 592 1013 l 776 1013 l 776 0 l 649 0 l 649 894 l 468 361 l 364 361 l 184 894 l 184 0 l 58 0 l 58 1013 "},"œ":{"x_min":10,"x_max":821,"ha":836,"o":"m 710 446 q 711 466 710 453 q 712 485 712 479 q 684 629 712 583 q 599 675 657 675 q 514 628 540 675 q 488 475 488 582 l 488 446 l 710 446 m 253 83 q 350 140 322 83 q 378 359 378 197 q 350 615 378 556 q 253 675 323 675 q 156 618 183 675 q 129 379 129 561 q 156 139 129 196 q 253 83 183 83 m 821 349 l 488 349 l 488 291 q 521 132 488 181 q 631 83 555 83 q 729 101 685 83 q 806 154 774 119 l 806 37 q 723 -6 765 7 q 631 -20 681 -20 q 514 2 564 -20 q 432 70 464 25 q 353 2 397 24 q 253 -20 310 -20 q 67 73 125 -20 q 10 379 10 167 q 67 684 10 590 q 253 778 125 778 q 357 756 313 778 q 432 691 400 735 q 501 755 457 733 q 604 778 545 778 q 772 697 723 778 q 821 410 821 617 l 821 349 "},"{":{"x_min":149,"x_max":686,"ha":836,"o":"m 686 -129 l 686 -227 l 642 -227 q 416 -176 473 -227 q 359 23 359 -126 l 359 185 q 322 327 359 288 q 191 367 286 367 l 149 367 l 149 464 l 191 464 q 322 502 286 464 q 359 642 359 541 l 359 805 q 416 1005 359 955 q 642 1055 473 1055 l 686 1055 l 686 958 l 638 958 q 514 928 543 958 q 486 802 486 899 l 486 634 q 455 480 486 528 q 349 415 424 432 q 455 348 424 396 q 486 194 486 300 l 486 26 q 514 -99 486 -70 q 638 -129 543 -129 l 686 -129 "},"¼":{"x_min":18,"x_max":755,"ha":836,"o":"m 71 634 l 210 634 l 210 1048 l 59 1020 l 59 1099 l 214 1125 l 308 1125 l 308 634 l 446 634 l 446 559 l 71 559 l 71 634 m 34 342 l 18 415 l 736 593 l 755 520 l 34 342 m 553 383 l 663 383 l 663 18 l 742 18 l 742 -57 l 663 -57 l 663 -183 l 569 -183 l 569 -57 l 307 -57 l 307 25 l 553 383 m 569 298 l 383 18 l 569 18 l 569 298 "},"#":{"x_min":1,"x_max":833,"ha":836,"o":"m 463 997 l 392 716 l 559 716 l 630 997 l 738 997 l 667 716 l 833 716 l 833 612 l 642 612 l 585 385 l 755 385 l 755 281 l 559 281 l 488 0 l 380 0 l 451 281 l 284 281 l 213 0 l 105 0 l 175 281 l 1 281 l 1 385 l 202 385 l 259 612 l 78 612 l 78 716 l 284 716 l 354 997 l 463 997 m 533 612 l 367 612 l 310 385 l 477 385 l 533 612 "},"Ê":{"x_min":134,"x_max":748,"ha":836,"o":"m 134 1013 l 735 1013 l 735 898 l 271 898 l 271 598 l 715 598 l 715 483 l 271 483 l 271 115 l 748 115 l 748 0 l 134 0 l 134 1013 m 365 1289 l 494 1289 l 637 1109 l 542 1109 l 429 1229 l 317 1109 l 223 1109 l 365 1289 "},")":{"x_min":236,"x_max":547,"ha":836,"o":"m 236 1054 l 344 1054 q 496 740 446 893 q 547 436 547 587 q 496 130 547 283 q 344 -183 446 -22 l 236 -183 q 370 128 326 -25 q 415 436 415 282 q 370 744 415 590 q 236 1054 326 898 "},"Å":{"x_min":25,"x_max":811,"ha":836,"o":"m 521 1102 q 490 1175 521 1145 q 417 1206 460 1206 q 344 1176 374 1206 q 315 1102 315 1146 q 344 1029 315 1059 q 417 1000 374 1000 q 490 1029 460 1000 q 521 1102 521 1059 m 417 888 l 273 374 l 562 374 l 417 888 m 315 948 q 253 1011 275 970 q 232 1102 232 1052 q 286 1234 232 1179 q 417 1289 340 1289 q 549 1234 494 1289 q 604 1102 604 1179 q 582 1012 604 1052 q 521 948 560 972 l 811 0 l 669 0 l 594 264 l 240 264 l 166 0 l 25 0 l 315 948 "},"¸":{"x_min":268,"x_max":549,"ha":836,"o":"m 475 0 q 531 -77 513 -42 q 549 -145 549 -113 q 508 -237 549 -206 q 387 -268 467 -268 q 327 -263 356 -268 q 268 -251 297 -259 l 268 -163 q 316 -179 291 -174 q 374 -185 342 -185 q 434 -168 413 -185 q 455 -121 455 -152 q 440 -71 455 -100 q 395 0 425 -41 l 475 0 "},"a":{"x_min":90,"x_max":718,"ha":836,"o":"m 476 382 l 434 382 q 270 343 325 382 q 215 228 215 305 q 256 122 215 160 q 371 84 297 84 q 533 155 474 84 q 593 354 592 227 l 593 382 l 476 382 m 718 433 l 718 0 l 593 0 l 593 111 q 492 12 552 44 q 344 -20 431 -20 q 159 45 228 -20 q 90 221 90 111 q 175 414 90 348 q 425 480 260 480 l 593 480 l 593 499 q 546 631 592 590 q 401 672 501 672 q 272 653 337 672 q 146 600 207 635 l 146 725 q 278 764 215 751 q 401 778 341 778 q 562 750 495 778 q 670 666 629 722 q 707 583 696 632 q 718 433 718 533 "},"=":{"x_min":60,"x_max":777,"ha":836,"o":"m 60 355 l 777 355 l 777 238 l 60 238 l 60 355 m 60 630 l 777 630 l 777 515 l 60 515 l 60 630 "},"˚":{"x_min":232,"x_max":604,"ha":836,"o":"m 604 1033 q 550 901 604 955 q 417 847 496 847 q 285 901 339 847 q 232 1033 232 955 q 285 1165 232 1111 q 417 1219 339 1219 q 550 1165 496 1219 q 604 1033 604 1111 m 521 1033 q 491 1106 521 1076 q 417 1136 461 1136 q 344 1106 374 1136 q 315 1033 315 1076 q 344 959 315 989 q 417 930 374 930 q 491 959 461 930 q 521 1033 521 989 "},"ú":{"x_min":132,"x_max":713,"ha":836,"o":"m 132 287 l 132 758 l 257 758 l 257 287 q 293 137 257 185 q 405 89 329 89 q 541 151 494 89 q 588 328 588 213 l 588 758 l 713 758 l 713 0 l 588 0 l 588 114 q 497 14 554 48 q 363 -20 439 -20 q 189 56 246 -20 q 132 287 132 132 m 512 1111 l 647 1111 l 426 856 l 322 856 l 512 1111 "},"¯":{"x_min":215,"x_max":621,"ha":836,"o":"m 215 1035 l 621 1035 l 621 935 l 215 935 l 215 1035 "},"Z":{"x_min":106,"x_max":793,"ha":836,"o":"m 121 1013 l 778 1013 l 778 908 l 249 115 l 793 115 l 793 0 l 106 0 l 106 104 l 620 898 l 121 898 l 121 1013 "},"u":{"x_min":132,"x_max":713,"ha":836,"o":"m 132 287 l 132 758 l 257 758 l 257 287 q 293 137 257 185 q 405 89 329 89 q 541 151 494 89 q 588 328 588 213 l 588 758 l 713 758 l 713 0 l 588 0 l 588 114 q 497 14 554 48 q 363 -20 439 -20 q 189 56 246 -20 q 132 287 132 132 "},"k":{"x_min":160,"x_max":815,"ha":836,"o":"m 160 1055 l 289 1055 l 289 444 l 616 760 l 768 760 l 469 473 l 815 0 l 662 0 l 381 392 l 289 304 l 289 0 l 160 0 l 160 1055 "},"Ù":{"x_min":100,"x_max":736,"ha":836,"o":"m 100 388 l 100 1013 l 238 1013 l 238 325 q 242 220 238 251 q 256 171 246 188 q 318 111 277 131 q 418 91 359 91 q 517 111 477 91 q 580 171 558 131 q 594 220 590 188 q 599 324 599 251 l 599 388 l 599 1013 l 736 1013 l 736 388 q 716 167 736 233 q 649 59 697 102 q 547 0 605 19 q 418 -20 489 -20 q 289 0 346 -20 q 186 59 231 19 q 119 168 139 101 q 100 388 100 235 m 380 1288 l 514 1109 l 409 1109 l 256 1288 l 380 1288 "},"¢":{"x_min":144,"x_max":719,"ha":836,"o":"m 719 732 l 719 615 q 629 656 673 641 q 543 674 585 671 l 543 84 q 629 102 585 87 q 719 145 674 117 l 719 28 q 625 -4 669 7 q 543 -18 581 -15 l 543 -212 l 473 -212 l 473 -18 q 232 103 320 -3 q 144 379 144 209 q 233 656 144 549 q 473 777 322 764 l 473 972 l 543 972 l 543 777 q 625 763 581 775 q 719 732 669 752 m 473 86 l 473 673 q 329 584 383 664 q 275 379 275 504 q 329 175 275 255 q 473 86 383 95 "},"Ş":{"x_min":94,"x_max":744,"ha":836,"o":"m 686 978 l 686 839 q 560 899 623 879 q 434 920 498 920 q 281 874 337 920 q 225 752 225 829 q 261 650 225 685 q 399 591 298 615 l 471 575 q 678 470 613 541 q 744 276 744 399 q 654 56 744 132 q 394 -20 565 -20 q 251 -4 323 -20 q 107 41 179 10 l 107 187 q 254 114 184 137 q 394 91 323 91 q 555 137 497 91 q 613 267 613 184 q 573 383 613 343 q 435 445 533 423 l 362 462 q 157 558 221 494 q 94 731 94 623 q 185 949 94 867 q 427 1031 276 1031 q 550 1017 485 1031 q 686 978 614 1004 m 475 0 q 531 -77 513 -42 q 549 -145 549 -113 q 508 -237 549 -206 q 387 -268 467 -268 q 327 -263 356 -268 q 268 -251 297 -259 l 268 -163 q 316 -179 291 -174 q 374 -185 342 -185 q 434 -168 413 -185 q 455 -121 455 -152 q 440 -71 455 -100 q 395 0 425 -41 l 475 0 "},"é":{"x_min":83,"x_max":754,"ha":836,"o":"m 754 411 l 754 350 l 213 350 l 213 345 q 278 153 213 221 q 460 86 342 86 q 585 105 520 86 q 725 163 651 124 l 725 39 q 587 -5 653 9 q 459 -20 521 -20 q 182 86 282 -20 q 83 379 83 192 q 180 669 83 560 q 441 778 278 778 q 670 679 586 778 q 754 411 754 581 m 629 448 q 577 614 626 557 q 435 672 527 672 q 287 612 345 672 q 218 447 228 552 l 629 448 m 522 1111 l 657 1111 l 436 856 l 332 856 l 522 1111 "},"B":{"x_min":113,"x_max":772,"ha":836,"o":"m 251 484 l 251 113 l 413 113 q 583 154 532 113 q 634 292 634 196 q 580 437 634 391 q 413 484 527 484 l 251 484 m 251 900 l 251 595 l 410 595 q 554 632 509 595 q 599 755 599 670 q 555 866 599 832 q 410 900 511 900 l 251 900 m 113 1013 l 413 1013 q 652 945 568 1013 q 737 755 737 878 q 692 609 737 662 q 559 542 648 555 q 715 457 659 527 q 772 278 772 386 q 681 70 772 140 q 413 0 591 0 l 113 0 l 113 1013 "},"…":{"x_min":54,"x_max":780,"ha":836,"o":"m 54 207 l 225 207 l 225 0 l 54 0 l 54 207 m 609 207 l 780 207 l 780 0 l 609 0 l 609 207 m 331 207 l 502 207 l 502 0 l 331 0 l 331 207 "},"H":{"x_min":93,"x_max":743,"ha":836,"o":"m 93 1013 l 231 1013 l 231 598 l 605 598 l 605 1013 l 743 1013 l 743 0 l 605 0 l 605 483 l 231 483 l 231 0 l 93 0 l 93 1013 "},"î":{"x_min":120,"x_max":741,"ha":836,"o":"m 173 760 l 493 760 l 493 97 l 741 97 l 741 0 l 120 0 l 120 97 l 368 97 l 368 663 l 173 663 l 173 760 m 367 1111 l 467 1111 l 634 856 l 539 856 l 417 1022 l 295 856 l 201 856 l 367 1111 "},"−":{"x_min":60,"x_max":777,"ha":836,"o":"m 60 493 l 777 493 l 777 378 l 60 378 l 60 493 "},"≠":{"x_min":60,"x_max":777,"ha":836,"o":"m 60 630 l 498 630 l 665 844 l 750 774 l 639 630 l 777 630 l 777 515 l 550 515 l 425 355 l 777 355 l 777 238 l 338 238 l 169 24 l 85 94 l 196 238 l 60 238 l 60 355 l 283 355 l 408 515 l 60 515 l 60 630 "},"¥":{"x_min":25,"x_max":812,"ha":836,"o":"m 25 1013 l 171 1013 l 418 565 l 664 1013 l 812 1013 l 588 632 l 759 632 l 759 557 l 545 557 l 487 454 l 487 431 l 759 431 l 759 356 l 487 356 l 487 0 l 349 0 l 349 356 l 78 356 l 78 431 l 349 431 l 349 454 l 287 557 l 78 557 l 78 632 l 243 632 l 25 1013 "},"U":{"x_min":100,"x_max":736,"ha":836,"o":"m 100 388 l 100 1013 l 238 1013 l 238 325 q 242 220 238 251 q 256 171 246 188 q 318 111 277 131 q 418 91 359 91 q 517 111 477 91 q 580 171 558 131 q 594 220 590 188 q 599 324 599 251 l 599 388 l 599 1013 l 736 1013 l 736 388 q 716 167 736 233 q 649 59 697 102 q 547 0 605 19 q 418 -20 489 -20 q 289 0 346 -20 q 186 59 231 19 q 119 168 139 101 q 100 388 100 235 "},"Ñ":{"x_min":94,"x_max":742,"ha":836,"o":"m 94 1013 l 267 1013 l 610 179 l 610 1013 l 742 1013 l 742 0 l 568 0 l 226 833 l 226 0 l 94 0 l 94 1013 m 403 1159 l 364 1182 q 337 1195 347 1191 q 318 1199 326 1199 q 281 1182 295 1199 q 268 1135 268 1165 l 268 1131 l 183 1131 q 217 1239 183 1199 q 310 1279 252 1279 q 355 1273 334 1279 q 409 1250 376 1268 l 448 1229 q 474 1217 463 1221 q 496 1213 486 1213 q 531 1230 517 1213 q 545 1274 545 1247 l 545 1279 l 630 1279 q 594 1171 628 1211 q 502 1131 559 1131 q 459 1136 479 1131 q 403 1159 438 1141 "},"F":{"x_min":158,"x_max":754,"ha":836,"o":"m 158 1013 l 754 1013 l 754 898 l 296 898 l 296 599 l 711 599 l 711 484 l 296 484 l 296 0 l 158 0 l 158 1013 "},"*":{"x_min":112,"x_max":724,"ha":836,"o":"m 724 845 l 480 714 l 724 581 l 685 515 l 457 652 l 457 397 l 379 397 l 379 652 l 150 515 l 112 581 l 355 714 l 112 845 l 150 913 l 379 775 l 379 1031 l 457 1031 l 457 775 l 685 913 l 724 845 "},"†":{"x_min":110,"x_max":726,"ha":836,"o":"m 358 1013 l 478 1013 l 478 728 l 726 728 l 726 624 l 478 624 l 478 -134 l 358 -134 l 358 624 l 110 624 l 110 728 l 358 728 l 358 1013 "},"∕":{"x_min":69,"x_max":732,"ha":836,"o":"m 603 1013 l 732 1013 l 199 -128 l 69 -128 l 603 1013 "},"°":{"x_min":203,"x_max":634,"ha":836,"o":"m 418 1031 q 501 1014 462 1031 q 571 966 541 997 q 618 897 602 935 q 634 813 634 858 q 570 662 634 724 q 416 600 507 600 q 264 661 325 600 q 203 813 203 722 q 265 967 203 904 q 418 1031 327 1031 m 418 943 q 326 905 364 943 q 289 813 289 867 q 326 722 289 759 q 416 686 363 686 q 509 723 471 686 q 548 813 548 760 q 509 905 548 867 q 418 943 471 943 "},"å":{"x_min":90,"x_max":718,"ha":836,"o":"m 476 382 l 434 382 q 270 343 325 382 q 215 228 215 305 q 256 122 215 160 q 371 84 297 84 q 533 155 474 84 q 593 354 592 227 l 593 382 l 476 382 m 718 433 l 718 0 l 593 0 l 593 111 q 492 12 552 44 q 344 -20 431 -20 q 159 45 228 -20 q 90 221 90 111 q 175 414 90 348 q 425 480 260 480 l 593 480 l 593 499 q 546 631 592 590 q 401 672 501 672 q 272 653 337 672 q 146 600 207 635 l 146 725 q 278 764 215 751 q 401 778 341 778 q 562 750 495 778 q 670 666 629 722 q 707 583 696 632 q 718 433 718 533 m 604 1033 q 550 901 604 955 q 417 847 496 847 q 285 901 339 847 q 232 1033 232 955 q 285 1165 232 1111 q 417 1219 339 1219 q 550 1165 496 1219 q 604 1033 604 1111 m 521 1033 q 491 1106 521 1076 q 417 1136 461 1136 q 344 1106 374 1136 q 315 1033 315 1076 q 344 959 315 989 q 417 930 374 930 q 491 959 461 930 q 521 1033 521 989 "},"0":{"x_min":90,"x_max":746,"ha":836,"o":"m 327 507 q 353 571 327 544 q 415 599 379 599 q 480 571 453 599 q 508 507 508 544 q 481 443 508 469 q 415 417 454 417 q 352 442 377 417 q 327 507 327 468 m 417 922 q 275 818 322 922 q 228 505 228 715 q 275 192 228 295 q 417 89 322 89 q 560 192 513 89 q 608 505 608 295 q 560 818 608 715 q 417 922 513 922 m 417 1031 q 662 898 579 1031 q 746 505 746 765 q 662 112 746 245 q 417 -20 579 -20 q 172 112 255 -20 q 90 505 90 245 q 172 898 90 765 q 417 1031 255 1031 "},"”":{"x_min":143,"x_max":691,"ha":836,"o":"m 520 1055 l 691 1055 l 691 915 l 558 656 l 454 656 l 520 915 l 520 1055 m 209 1055 l 380 1055 l 380 915 l 247 656 l 143 656 l 209 915 l 209 1055 "},"ö":{"x_min":93,"x_max":743,"ha":836,"o":"m 417 672 q 273 598 322 672 q 225 379 225 524 q 273 160 225 234 q 417 86 322 86 q 562 160 513 86 q 611 379 611 234 q 562 598 611 524 q 417 672 513 672 m 417 778 q 659 675 575 778 q 743 379 743 573 q 659 82 743 184 q 417 -20 576 -20 q 176 82 259 -20 q 93 379 93 184 q 176 675 93 573 q 417 778 259 778 m 216 1053 l 354 1053 l 354 916 l 216 916 l 216 1053 m 482 1053 l 619 1053 l 619 916 l 482 916 l 482 1053 "},"Õ":{"x_min":79,"x_max":757,"ha":836,"o":"m 614 505 q 568 824 614 728 q 417 920 522 920 q 267 824 313 920 q 222 505 222 728 q 267 186 222 282 q 417 91 313 91 q 568 186 522 91 q 614 505 614 281 m 757 505 q 673 110 757 240 q 417 -20 589 -20 q 162 109 245 -20 q 79 505 79 239 q 162 900 79 770 q 417 1031 246 1031 q 673 900 589 1031 q 757 505 757 770 m 415 1159 l 376 1182 q 349 1195 359 1191 q 330 1199 338 1199 q 293 1182 307 1199 q 280 1135 280 1165 l 280 1131 l 195 1131 q 229 1239 195 1199 q 322 1279 264 1279 q 367 1273 346 1279 q 421 1250 388 1268 l 460 1229 q 486 1217 475 1221 q 508 1213 498 1213 q 543 1230 529 1213 q 557 1274 557 1247 l 557 1279 l 642 1279 q 606 1171 640 1211 q 514 1131 571 1131 q 471 1136 491 1131 q 415 1159 450 1141 "},"ć":{"x_min":132,"x_max":719,"ha":836,"o":"m 719 38 q 615 -5 668 9 q 506 -20 562 -20 q 231 85 330 -20 q 132 379 132 191 q 231 672 132 566 q 506 778 330 778 q 613 763 561 778 q 719 720 666 749 l 719 589 q 619 652 669 632 q 507 672 570 672 q 326 596 389 672 q 264 379 264 520 q 327 162 264 238 q 507 86 390 86 q 623 105 572 86 q 719 168 674 125 l 719 38 m 573 1111 l 708 1111 l 487 856 l 383 856 l 573 1111 "},"þ":{"x_min":129,"x_max":752,"ha":836,"o":"m 254 95 l 254 -289 l 129 -289 l 129 1055 l 254 1055 l 254 662 q 337 748 285 718 q 457 778 389 778 q 673 671 595 778 q 752 376 752 564 q 673 85 752 191 q 457 -20 594 -20 q 335 9 387 -20 q 254 95 283 39 m 621 379 q 575 598 621 524 q 438 672 529 672 q 300 597 347 672 q 254 379 254 523 q 300 160 254 235 q 438 86 347 86 q 575 159 529 86 q 621 379 621 233 "},"]":{"x_min":234,"x_max":522,"ha":836,"o":"m 522 1055 l 522 -183 l 234 -183 l 234 -86 l 397 -86 l 397 958 l 234 958 l 234 1055 l 522 1055 "},"8":{"x_min":89,"x_max":748,"ha":836,"o":"m 418 481 q 276 429 326 481 q 227 284 227 378 q 277 138 227 190 q 418 87 328 87 q 560 138 510 87 q 610 284 610 189 q 559 429 610 377 q 418 481 509 481 m 298 538 q 162 621 211 560 q 113 768 113 682 q 195 960 113 889 q 418 1031 277 1031 q 641 960 559 1031 q 724 768 724 889 q 674 621 724 682 q 538 538 625 560 q 694 447 640 515 q 748 271 748 379 q 660 57 748 134 q 418 -20 572 -20 q 176 57 263 -20 q 89 270 89 134 q 142 447 89 379 q 298 538 196 515 m 249 755 q 292 631 249 674 q 418 589 335 589 q 544 631 501 589 q 588 755 588 674 q 544 881 588 838 q 418 925 501 925 q 292 881 335 925 q 249 755 249 837 "},"R":{"x_min":97,"x_max":837,"ha":836,"o":"m 516 478 q 606 427 568 464 q 698 276 643 389 l 837 0 l 689 0 l 569 255 q 475 396 516 364 q 366 428 433 428 l 235 428 l 235 0 l 97 0 l 97 1013 l 379 1013 q 635 937 546 1013 q 724 719 724 862 q 669 556 724 619 q 516 478 615 492 m 235 900 l 235 541 l 385 541 q 531 585 483 541 q 580 719 580 629 q 528 853 580 807 q 379 900 477 900 l 235 900 "},"o":{"x_min":93,"x_max":743,"ha":836,"o":"m 417 672 q 273 598 322 672 q 225 379 225 524 q 273 160 225 234 q 417 86 322 86 q 562 160 513 86 q 611 379 611 234 q 562 598 611 524 q 417 672 513 672 m 417 778 q 659 675 575 778 q 743 379 743 573 q 659 82 743 184 q 417 -20 576 -20 q 176 82 259 -20 q 93 379 93 184 q 176 675 93 573 q 417 778 259 778 "},"5":{"x_min":97,"x_max":725,"ha":836,"o":"m 140 1013 l 653 1013 l 653 898 l 265 898 l 265 648 q 323 663 294 658 q 383 669 353 669 q 632 576 540 669 q 725 324 725 483 q 628 72 725 164 q 364 -20 531 -20 q 216 -9 283 -20 q 97 23 149 1 l 97 162 q 222 111 159 128 q 351 95 285 95 q 525 154 464 95 q 587 324 587 214 q 523 493 587 433 q 346 554 460 554 q 239 541 291 554 q 140 504 187 529 l 140 1013 "},"õ":{"x_min":93,"x_max":743,"ha":836,"o":"m 417 672 q 273 598 322 672 q 225 379 225 524 q 273 160 225 234 q 417 86 322 86 q 562 160 513 86 q 611 379 611 234 q 562 598 611 524 q 417 672 513 672 m 417 778 q 659 675 575 778 q 743 379 743 573 q 659 82 743 184 q 417 -20 576 -20 q 176 82 259 -20 q 93 379 93 184 q 176 675 93 573 q 417 778 259 778 m 415 929 l 376 966 q 351 986 362 980 q 330 993 340 993 q 292 967 304 993 q 279 888 280 942 l 195 888 q 230 1028 195 978 q 326 1079 264 1079 q 374 1069 352 1079 q 421 1037 396 1060 l 460 1000 q 485 980 474 986 q 505 974 496 974 q 544 999 531 974 q 557 1079 556 1024 l 642 1079 q 606 938 641 988 q 510 888 572 888 q 462 897 483 888 q 415 929 440 906 "},",":{"x_min":273,"x_max":511,"ha":836,"o":"m 340 206 l 511 206 l 511 65 l 377 -194 l 273 -194 l 340 65 l 340 206 "},"d":{"x_min":83,"x_max":706,"ha":836,"o":"m 581 662 l 581 1055 l 706 1055 l 706 0 l 581 0 l 581 95 q 498 9 549 39 q 378 -20 446 -20 q 161 86 240 -20 q 83 381 83 193 q 162 672 83 566 q 378 778 241 778 q 499 748 446 778 q 581 662 551 718 m 215 379 q 261 159 215 233 q 396 86 307 86 q 533 160 486 86 q 581 379 581 235 q 533 597 581 523 q 396 672 486 672 q 261 598 307 672 q 215 379 215 524 "},"\"":{"x_min":232,"x_max":604,"ha":836,"o":"m 604 1013 l 604 637 l 489 637 l 489 1013 l 604 1013 m 347 1013 l 347 637 l 232 637 l 232 1013 l 347 1013 "},"˙":{"x_min":349,"x_max":488,"ha":836,"o":"m 349 1053 l 488 1053 l 488 915 l 349 915 l 349 1053 "},"ê":{"x_min":83,"x_max":754,"ha":836,"o":"m 754 411 l 754 350 l 213 350 l 213 345 q 278 153 213 221 q 460 86 342 86 q 585 105 520 86 q 725 163 651 124 l 725 39 q 587 -5 653 9 q 459 -20 521 -20 q 182 86 282 -20 q 83 379 83 192 q 180 669 83 560 q 441 778 278 778 q 670 679 586 778 q 754 411 754 581 m 629 448 q 577 614 626 557 q 435 672 527 672 q 287 612 345 672 q 218 447 228 552 l 629 448 m 377 1111 l 477 1111 l 644 856 l 549 856 l 427 1022 l 305 856 l 211 856 l 377 1111 "},"„":{"x_min":143,"x_max":691,"ha":836,"o":"m 520 206 l 691 206 l 691 65 l 558 -194 l 454 -194 l 520 65 l 520 206 m 209 206 l 380 206 l 380 65 l 247 -194 l 143 -194 l 209 65 l 209 206 "},"Â":{"x_min":25,"x_max":811,"ha":836,"o":"m 417 892 l 273 374 l 562 374 l 417 892 m 334 1013 l 501 1013 l 811 0 l 669 0 l 594 264 l 239 264 l 166 0 l 25 0 l 334 1013 m 353 1289 l 482 1289 l 625 1109 l 530 1109 l 417 1229 l 305 1109 l 211 1109 l 353 1289 "},"Í":{"x_min":137,"x_max":699,"ha":836,"o":"m 137 1013 l 699 1013 l 699 898 l 487 898 l 487 115 l 699 115 l 699 0 l 137 0 l 137 115 l 349 115 l 349 898 l 137 898 l 137 1013 m 455 1288 l 582 1288 l 426 1109 l 322 1109 l 455 1288 "},"´":{"x_min":322,"x_max":647,"ha":836,"o":"m 512 1111 l 647 1111 l 426 856 l 322 856 l 512 1111 "},"Ú":{"x_min":100,"x_max":736,"ha":836,"o":"m 100 388 l 100 1013 l 238 1013 l 238 325 q 242 220 238 251 q 256 171 246 188 q 318 111 277 131 q 418 91 359 91 q 517 111 477 91 q 580 171 558 131 q 594 220 590 188 q 599 324 599 251 l 599 388 l 599 1013 l 736 1013 l 736 388 q 716 167 736 233 q 649 59 697 102 q 547 0 605 19 q 418 -20 489 -20 q 289 0 346 -20 q 186 59 231 19 q 119 168 139 101 q 100 388 100 235 m 455 1288 l 582 1288 l 426 1109 l 322 1109 l 455 1288 "},"Ý":{"x_min":25,"x_max":812,"ha":836,"o":"m 25 1013 l 171 1013 l 418 565 l 664 1013 l 812 1013 l 487 454 l 487 0 l 349 0 l 349 454 l 25 1013 m 455 1288 l 582 1288 l 426 1109 l 322 1109 l 455 1288 "},"Ω":{"x_min":50,"x_max":786,"ha":836,"o":"m 50 0 l 50 117 l 216 117 q 95 305 132 207 q 58 530 58 403 q 155 865 58 741 q 415 990 253 990 q 678 865 580 990 q 776 530 776 741 q 738 305 776 403 q 617 117 700 207 l 786 117 l 786 0 l 472 0 l 472 117 q 598 279 553 168 q 644 541 644 391 q 583 787 644 697 q 417 877 522 877 q 252 787 313 877 q 192 541 192 697 q 237 279 192 391 q 364 117 282 168 l 364 0 l 50 0 "},"Ö":{"x_min":79,"x_max":757,"ha":836,"o":"m 614 505 q 568 824 614 728 q 417 920 522 920 q 267 824 313 920 q 222 505 222 728 q 267 186 222 282 q 417 91 313 91 q 568 186 522 91 q 614 505 614 281 m 757 505 q 673 110 757 240 q 417 -20 589 -20 q 162 109 245 -20 q 79 505 79 239 q 162 900 79 770 q 417 1031 246 1031 q 673 900 589 1031 q 757 505 757 770 m 216 1269 l 354 1269 l 354 1131 l 216 1131 l 216 1269 m 482 1269 l 619 1269 l 619 1131 l 482 1131 l 482 1269 "},"z":{"x_min":138,"x_max":706,"ha":836,"o":"m 154 761 l 706 761 l 706 647 l 269 102 l 706 102 l 706 0 l 138 0 l 138 115 l 574 661 l 154 661 l 154 761 "},"™":{"x_min":0,"x_max":764,"ha":836,"o":"m 297 1013 l 297 949 l 187 949 l 187 621 l 110 621 l 110 949 l 0 949 l 0 1013 l 297 1013 m 469 1013 l 562 839 l 647 1013 l 764 1013 l 764 621 l 687 621 l 687 947 l 581 744 l 543 744 l 431 947 l 431 621 l 354 621 l 354 1013 l 469 1013 "},"ã":{"x_min":90,"x_max":718,"ha":836,"o":"m 476 382 l 434 382 q 270 343 325 382 q 215 228 215 305 q 256 122 215 160 q 371 84 297 84 q 533 155 474 84 q 593 354 592 227 l 593 382 l 476 382 m 718 433 l 718 0 l 593 0 l 593 111 q 492 12 552 44 q 344 -20 431 -20 q 159 45 228 -20 q 90 221 90 111 q 175 414 90 348 q 425 480 260 480 l 593 480 l 593 499 q 546 631 592 590 q 401 672 501 672 q 272 653 337 672 q 146 600 207 635 l 146 725 q 278 764 215 751 q 401 778 341 778 q 562 750 495 778 q 670 666 629 722 q 707 583 696 632 q 718 433 718 533 m 415 929 l 376 966 q 351 986 362 980 q 330 993 340 993 q 292 967 304 993 q 279 888 280 942 l 195 888 q 230 1028 195 978 q 326 1079 264 1079 q 374 1069 352 1079 q 421 1037 396 1060 l 460 1000 q 485 980 474 986 q 505 974 496 974 q 544 999 531 974 q 557 1079 556 1024 l 642 1079 q 606 938 641 988 q 510 888 572 888 q 462 897 483 888 q 415 929 440 906 "},"æ":{"x_min":28,"x_max":814,"ha":836,"o":"m 368 299 l 368 349 l 334 349 q 179 318 220 349 q 139 210 139 287 q 169 117 139 150 q 255 84 199 84 q 342 129 317 84 q 368 299 368 174 m 703 446 l 703 481 q 676 628 703 583 q 591 674 650 674 q 506 627 532 674 q 481 475 481 581 l 481 446 l 703 446 m 814 349 l 481 349 q 479 326 480 338 q 479 291 479 314 q 513 133 479 182 q 624 84 548 84 q 721 101 677 84 q 799 153 765 118 l 799 36 q 716 -5 761 8 q 623 -20 672 -20 q 498 7 549 -20 q 426 88 448 35 q 355 7 400 34 q 244 -20 309 -20 q 83 38 138 -20 q 28 208 28 96 q 95 385 28 324 q 292 446 163 446 l 372 446 l 372 505 q 338 630 372 587 q 241 674 304 674 q 158 659 203 674 q 72 618 113 644 l 72 732 q 168 766 124 755 q 254 778 213 778 q 358 756 316 778 q 425 692 400 735 q 492 755 447 733 q 597 778 537 778 q 764 697 715 778 q 814 410 814 617 l 814 349 "},"É":{"x_min":134,"x_max":748,"ha":836,"o":"m 134 1013 l 735 1013 l 735 898 l 271 898 l 271 598 l 715 598 l 715 483 l 271 483 l 271 115 l 748 115 l 748 0 l 134 0 l 134 1013 m 467 1288 l 594 1288 l 438 1109 l 334 1109 l 467 1288 "},"~":{"x_min":60,"x_max":777,"ha":836,"o":"m 777 529 l 777 410 q 677 352 726 370 q 575 334 629 334 q 437 368 514 334 q 415 377 422 375 q 328 407 363 399 q 258 416 293 416 q 157 396 205 416 q 60 334 109 376 l 60 452 q 162 510 112 492 q 268 529 211 529 q 338 521 304 529 q 422 493 372 514 q 444 483 430 489 q 586 446 523 446 q 680 466 633 446 q 777 529 726 487 "},"³":{"x_min":221,"x_max":627,"ha":836,"o":"m 496 759 q 593 708 560 745 q 627 618 627 672 q 562 488 627 533 q 377 443 498 443 q 299 450 338 443 q 221 471 261 457 l 221 553 q 306 525 267 534 q 375 517 344 517 q 483 544 443 517 q 524 618 524 572 q 486 694 524 668 q 375 720 449 720 l 330 720 l 330 793 l 380 793 q 477 814 444 793 q 511 876 511 835 q 478 935 511 914 q 386 957 445 957 q 318 948 356 957 q 240 925 280 940 l 240 1007 q 326 1024 286 1018 q 400 1031 366 1031 q 555 991 498 1031 q 613 883 613 951 q 583 804 613 835 q 496 759 553 772 "},"¡":{"x_min":350,"x_max":488,"ha":836,"o":"m 350 841 l 350 1013 l 488 1013 l 488 841 l 350 841 m 350 0 l 350 444 l 364 687 l 473 687 l 488 444 l 488 0 l 350 0 "},"[":{"x_min":314,"x_max":602,"ha":836,"o":"m 314 1055 l 602 1055 l 602 958 l 439 958 l 439 -86 l 602 -86 l 602 -183 l 314 -183 l 314 1055 "},"%":{"x_min":22,"x_max":813,"ha":836,"o":"m 472 216 q 507 127 472 163 q 595 92 542 92 q 683 128 647 92 q 720 216 720 164 q 683 304 720 268 q 595 341 647 341 q 507 305 542 341 q 472 216 472 269 m 380 216 q 442 370 380 307 q 595 433 504 433 q 677 416 638 433 q 747 369 716 400 q 796 298 779 337 q 813 216 813 258 q 749 63 813 126 q 595 0 686 0 q 441 62 503 0 q 380 216 380 124 m 81 314 l 58 379 l 764 664 l 791 599 l 81 314 m 114 754 q 149 665 114 701 q 238 630 184 630 q 326 666 290 630 q 363 754 363 702 q 326 842 363 806 q 238 879 290 879 q 150 843 186 879 q 114 754 114 807 m 22 754 q 84 908 22 845 q 238 971 146 971 q 321 954 281 971 q 391 907 360 938 q 438 837 421 877 q 455 754 455 798 q 391 600 455 663 q 238 538 328 538 q 84 600 146 538 q 22 754 22 662 "},"P":{"x_min":134,"x_max":774,"ha":836,"o":"m 271 900 l 271 520 l 429 520 q 577 570 524 520 q 631 710 631 620 q 578 850 631 800 q 429 900 525 900 l 271 900 m 134 1013 l 429 1013 q 686 935 599 1013 q 774 710 774 858 q 686 483 774 560 q 429 407 599 407 l 271 407 l 271 0 l 134 0 l 134 1013 "},"∏":{"x_min":103,"x_max":733,"ha":836,"o":"m 103 -296 l 103 1030 l 733 1030 l 733 -296 l 628 -296 l 628 940 l 208 940 l 208 -296 l 103 -296 "},"_":{"x_min":0,"x_max":695,"ha":836,"o":"m 695 -274 l 695 -328 l 0 -328 l 0 -274 l 695 -274 "},"ñ":{"x_min":132,"x_max":713,"ha":836,"o":"m 713 470 l 713 0 l 588 0 l 588 470 q 551 620 588 572 q 439 669 515 669 q 304 606 351 669 q 257 429 257 544 l 257 0 l 132 0 l 132 760 l 257 760 l 257 645 q 347 744 290 710 q 482 778 404 778 q 655 701 598 778 q 713 470 713 625 m 415 929 l 376 966 q 351 986 362 980 q 330 993 340 993 q 292 967 304 993 q 279 888 280 942 l 195 888 q 230 1028 195 978 q 326 1079 264 1079 q 374 1069 352 1079 q 421 1037 396 1060 l 460 1000 q 485 980 474 986 q 505 974 496 974 q 544 999 531 974 q 557 1079 556 1024 l 642 1079 q 606 938 641 988 q 510 888 572 888 q 462 897 483 888 q 415 929 440 906 "},"‚":{"x_min":273,"x_max":511,"ha":836,"o":"m 340 206 l 511 206 l 511 65 l 377 -194 l 273 -194 l 340 65 l 340 206 "},"Æ":{"x_min":0,"x_max":800,"ha":836,"o":"m 787 1013 l 787 898 l 558 898 l 558 598 l 766 598 l 766 483 l 558 483 l 558 115 l 800 115 l 800 0 l 432 0 l 432 260 l 193 260 l 124 0 l 0 0 l 278 1013 l 787 1013 m 359 898 l 222 374 l 432 374 l 432 898 l 359 898 "},"ğ":{"x_min":83,"x_max":706,"ha":836,"o":"m 581 386 q 535 599 581 526 q 402 672 489 672 q 263 599 311 672 q 215 386 215 526 q 263 172 215 245 q 403 99 311 99 q 535 172 489 99 q 581 386 581 246 m 706 49 q 625 -209 706 -121 q 388 -298 544 -298 q 280 -288 336 -298 q 168 -260 224 -278 l 168 -137 q 288 -183 234 -168 q 388 -198 342 -198 q 534 -143 488 -198 q 581 31 581 -88 l 581 36 l 581 121 q 499 26 551 57 q 374 -5 448 -5 q 162 101 241 -5 q 83 386 83 207 q 162 671 83 565 q 374 778 241 778 q 498 748 447 778 q 581 658 549 719 l 581 757 l 706 757 l 706 49 m 206 1091 l 287 1091 q 326 1014 294 1039 q 418 989 359 989 q 508 1014 475 989 q 550 1091 540 1039 l 631 1091 q 570 944 623 993 q 418 896 516 896 q 267 944 320 896 q 206 1091 213 993 "},"ª":{"x_min":183,"x_max":651.75,"ha":836,"o":"m 463 748 q 324 725 366 748 q 282 649 282 702 q 311 580 282 606 q 389 554 341 554 q 505 602 461 554 q 550 728 550 650 l 550 748 l 463 748 m 647 789 l 647 486 l 550 486 l 550 562 q 472 495 516 517 q 372 473 427 473 q 233 519 284 473 q 183 643 183 565 q 246 778 183 731 q 426 826 309 826 l 550 826 l 550 828 q 509 921 550 890 q 389 953 469 953 q 312 941 355 953 q 225 907 270 929 l 225 993 q 316 1021 271 1012 q 405 1031 362 1031 q 588 972 530 1031 q 647 789 647 913 m 198 401 l 651 401 l 651 318 l 198 318 l 198 401 "},"Œ":{"x_min":49,"x_max":826,"ha":836,"o":"m 826 115 l 826 0 l 415 0 q 132 112 215 0 q 49 505 49 225 q 131 900 49 788 q 415 1013 214 1013 l 819 1013 l 819 898 l 576 898 l 576 598 l 798 598 l 798 483 l 576 483 l 576 115 l 826 115 m 400 898 q 233 819 280 898 q 186 505 186 741 q 233 192 186 270 q 400 115 280 115 l 442 115 l 442 898 l 400 898 "},"T":{"x_min":32,"x_max":805,"ha":836,"o":"m 32 1013 l 805 1013 l 805 898 l 488 898 l 488 0 l 350 0 l 350 898 l 32 898 l 32 1013 "},"š":{"x_min":144,"x_max":698,"ha":836,"o":"m 659 734 l 659 612 q 551 658 605 643 q 440 674 497 674 q 314 646 356 674 q 273 562 273 619 q 304 486 273 511 q 459 437 335 461 l 509 428 q 650 357 602 410 q 698 219 698 304 q 617 43 698 107 q 395 -20 537 -20 q 277 -8 339 -20 q 144 27 215 3 l 144 156 q 277 102 213 120 q 398 84 341 84 q 526 117 481 84 q 572 211 572 151 q 405 332 572 298 l 400 333 l 353 343 q 196 414 245 364 q 147 550 147 463 q 220 718 147 659 q 431 778 294 778 q 548 767 492 778 q 659 734 604 756 m 367 856 l 201 1111 l 295 1111 l 417 944 l 539 1111 l 634 1111 l 467 856 l 367 856 "},"Þ":{"x_min":136,"x_max":790,"ha":836,"o":"m 273 717 l 273 361 l 431 361 q 592 405 539 361 q 646 539 646 450 q 592 672 646 628 q 431 717 539 717 l 273 717 m 136 1013 l 273 1013 l 273 830 l 445 830 q 705 758 621 830 q 790 539 790 687 q 705 319 790 390 q 445 249 621 249 l 273 249 l 273 0 l 136 0 l 136 1013 "},"j":{"x_min":126,"x_max":532,"ha":836,"o":"m 407 -13 l 407 663 l 192 663 l 192 760 l 532 760 l 532 -13 q 471 -217 532 -145 q 298 -289 410 -289 l 126 -289 l 126 -183 l 284 -183 q 376 -140 345 -183 q 407 -13 407 -98 m 407 1055 l 532 1055 l 532 897 l 407 897 l 407 1055 "},"1":{"x_min":167,"x_max":742,"ha":836,"o":"m 183 115 l 396 115 l 396 890 l 167 838 l 167 963 l 394 1013 l 532 1013 l 532 115 l 742 115 l 742 0 l 183 0 l 183 115 "},"›":{"x_min":285,"x_max":603,"ha":836,"o":"m 285 718 l 603 434 l 603 378 l 285 95 l 285 224 l 489 406 l 285 588 l 285 718 "},"<":{"x_min":60,"x_max":777,"ha":836,"o":"m 777 651 l 200 434 l 777 219 l 777 95 l 60 378 l 60 491 l 777 775 l 777 651 "},"t":{"x_min":89,"x_max":701,"ha":836,"o":"m 417 976 l 417 760 l 701 760 l 701 663 l 417 663 l 417 250 q 448 133 417 166 q 560 100 480 100 l 701 100 l 701 0 l 548 0 q 349 56 407 0 q 292 250 292 112 l 292 663 l 89 663 l 89 760 l 292 760 l 292 976 l 417 976 "},"¬":{"x_min":60,"x_max":777,"ha":836,"o":"m 60 585 l 777 585 l 777 252 l 663 252 l 663 468 l 60 468 l 60 585 "},"ù":{"x_min":132,"x_max":713,"ha":836,"o":"m 132 287 l 132 758 l 257 758 l 257 287 q 293 137 257 185 q 405 89 329 89 q 541 151 494 89 q 588 328 588 213 l 588 758 l 713 758 l 713 0 l 588 0 l 588 114 q 497 14 554 48 q 363 -20 439 -20 q 189 56 246 -20 q 132 287 132 132 m 323 1111 l 514 856 l 409 856 l 189 1111 l 323 1111 "},"ï":{"x_min":120,"x_max":741,"ha":836,"o":"m 173 760 l 493 760 l 493 97 l 741 97 l 741 0 l 120 0 l 120 97 l 368 97 l 368 663 l 173 663 l 173 760 m 216 1053 l 354 1053 l 354 916 l 216 916 l 216 1053 m 482 1053 l 619 1053 l 619 916 l 482 916 l 482 1053 "},"Ò":{"x_min":79,"x_max":757,"ha":836,"o":"m 614 505 q 568 824 614 728 q 417 920 522 920 q 267 824 313 920 q 222 505 222 728 q 267 186 222 282 q 417 91 313 91 q 568 186 522 91 q 614 505 614 281 m 757 505 q 673 110 757 240 q 417 -20 589 -20 q 162 109 245 -20 q 79 505 79 239 q 162 900 79 770 q 417 1031 246 1031 q 673 900 589 1031 q 757 505 757 770 m 380 1288 l 514 1109 l 409 1109 l 256 1288 l 380 1288 "},"&":{"x_min":39,"x_max":828,"ha":836,"o":"m 370 614 l 653 235 q 692 319 679 268 q 705 441 705 370 q 702 510 705 462 l 702 515 l 814 515 l 814 488 q 788 296 814 379 q 712 154 763 214 l 828 0 l 683 0 l 630 73 q 511 2 574 25 q 376 -20 448 -20 q 134 71 230 -20 q 39 300 39 162 q 85 473 39 393 q 226 620 132 552 q 176 716 192 669 q 160 811 160 762 q 227 971 160 912 q 412 1031 295 1031 q 501 1022 456 1031 q 593 999 545 1014 l 593 875 q 510 914 552 901 q 421 927 467 927 q 317 896 355 927 q 279 812 279 865 q 298 728 279 772 q 370 614 318 684 m 281 544 q 188 439 219 494 q 158 321 158 384 q 225 151 158 219 q 398 84 293 84 q 458 92 427 84 q 519 115 489 100 q 549 133 538 126 q 572 150 561 141 l 281 544 "},"˝":{"x_min":233,"x_max":710,"ha":836,"o":"m 362 1111 l 478 1111 l 325 856 l 233 856 l 362 1111 m 588 1111 l 710 1111 l 541 856 l 450 856 l 588 1111 "},"I":{"x_min":137,"x_max":699,"ha":836,"o":"m 137 1013 l 699 1013 l 699 898 l 487 898 l 487 115 l 699 115 l 699 0 l 137 0 l 137 115 l 349 115 l 349 898 l 137 898 l 137 1013 "},"G":{"x_min":69,"x_max":749,"ha":836,"o":"m 749 82 q 625 6 694 32 q 476 -20 556 -20 q 176 118 283 -20 q 69 505 69 256 q 177 892 69 753 q 479 1031 286 1031 q 601 1012 543 1031 q 714 958 659 994 l 714 818 q 601 895 659 870 q 479 920 543 920 q 278 816 345 920 q 212 505 212 712 q 276 192 212 294 q 476 91 341 91 q 555 101 521 91 q 618 134 590 112 l 618 406 l 471 406 l 471 519 l 749 519 l 749 82 "},"`":{"x_min":189,"x_max":514,"ha":836,"o":"m 323 1111 l 514 856 l 409 856 l 189 1111 l 323 1111 "},"·":{"x_min":332,"x_max":503,"ha":836,"o":"m 332 586 l 503 586 l 503 379 l 332 379 l 332 586 "},"¿":{"x_min":130,"x_max":670,"ha":836,"o":"m 372 741 l 501 741 l 501 636 q 480 523 501 570 q 402 421 459 477 l 341 361 q 283 291 299 321 q 267 228 267 261 q 311 130 267 167 q 429 93 355 93 q 543 116 482 93 q 670 186 603 139 l 670 58 q 541 0 606 19 q 406 -18 476 -18 q 204 47 279 -18 q 130 221 130 112 q 152 317 130 272 q 239 424 175 361 l 299 482 q 357 554 344 525 q 371 625 371 582 q 371 629 371 626 q 372 657 372 644 l 372 741 m 505 841 l 368 841 l 368 1013 l 505 1013 l 505 841 "},"ý":{"x_min":71,"x_max":782,"ha":836,"o":"m 581 244 q 502 35 550 164 q 412 -183 435 -143 q 334 -262 381 -236 q 225 -289 287 -289 l 125 -289 l 125 -185 l 198 -185 q 285 -153 253 -185 q 364 11 316 -121 l 71 760 l 202 760 l 428 165 l 649 760 l 782 760 l 581 244 m 512 1111 l 647 1111 l 426 856 l 322 856 l 512 1111 "},"º":{"x_min":165,"x_max":670,"ha":836,"o":"m 417 952 q 308 898 347 952 q 270 751 270 845 q 308 604 270 656 q 417 552 347 552 q 525 605 485 552 q 565 751 565 658 q 526 898 565 845 q 417 952 487 952 m 417 1031 q 601 954 532 1031 q 670 751 670 878 q 601 548 670 624 q 417 473 533 473 q 233 548 301 473 q 165 751 165 624 q 233 954 165 878 q 417 1031 302 1031 m 186 401 l 644 401 l 644 318 l 186 318 l 186 401 "},"∞":{"x_min":28,"x_max":809,"ha":836,"o":"m 471 425 q 540 299 509 333 q 613 266 571 266 q 692 311 661 266 q 723 429 723 356 q 694 545 723 502 q 618 589 666 589 q 538 549 573 589 q 471 425 502 509 m 364 431 q 295 555 326 521 q 222 589 264 589 q 143 543 174 589 q 113 427 113 498 q 141 309 113 353 q 215 266 169 266 q 296 305 260 266 q 364 431 332 345 m 418 518 q 500 640 450 597 q 611 684 549 684 q 750 609 692 684 q 809 427 809 535 q 753 241 809 313 q 612 170 698 170 q 513 203 556 170 q 416 326 469 237 q 328 206 372 242 q 225 170 283 170 q 84 242 140 170 q 28 427 28 315 q 81 614 28 544 q 224 684 134 684 q 334 645 288 684 q 418 518 380 606 "},";":{"x_min":274,"x_max":512,"ha":836,"o":"m 341 206 l 512 206 l 512 65 l 378 -194 l 274 -194 l 341 65 l 341 206 m 332 721 l 503 721 l 503 515 l 332 515 l 332 721 "},"6":{"x_min":90,"x_max":746,"ha":836,"o":"m 672 990 l 672 864 q 581 902 629 889 q 480 916 532 916 q 283 818 350 916 q 216 529 216 720 q 306 633 248 597 q 438 670 363 670 q 665 580 585 670 q 746 325 746 490 q 663 70 746 160 q 430 -20 580 -20 q 172 106 254 -20 q 90 505 90 233 q 188 896 90 761 q 474 1031 287 1031 q 575 1020 524 1031 q 672 990 625 1009 m 427 563 q 290 499 340 563 q 240 325 240 436 q 290 150 240 213 q 427 87 340 87 q 564 147 518 87 q 611 325 611 207 q 564 503 611 443 q 427 563 518 563 "},"n":{"x_min":132,"x_max":713,"ha":836,"o":"m 713 470 l 713 0 l 588 0 l 588 470 q 551 620 588 572 q 439 669 515 669 q 304 606 351 669 q 257 429 257 544 l 257 0 l 132 0 l 132 760 l 257 760 l 257 645 q 347 744 290 710 q 482 778 404 778 q 655 701 598 778 q 713 470 713 625 "},"¤":{"x_min":139,"x_max":747,"ha":836,"o":"m 588 436 q 546 539 588 497 q 442 581 504 581 q 339 539 381 581 q 297 436 297 497 q 339 332 297 374 q 442 290 381 290 q 546 332 504 290 q 588 436 588 375 m 571 627 l 685 740 l 747 676 l 633 564 q 664 499 654 530 q 674 435 674 467 q 663 370 674 401 q 632 309 653 340 l 747 195 l 682 132 l 569 245 q 507 214 537 224 q 442 204 476 204 q 377 213 410 204 q 312 243 345 223 l 201 132 l 139 193 l 251 306 q 220 372 230 341 q 211 435 211 404 q 221 500 211 469 q 252 562 232 532 l 139 675 l 202 740 l 315 625 q 377 656 346 646 q 442 667 407 667 q 505 657 473 667 q 571 627 537 647 "},"∂":{"x_min":129,"x_max":710,"ha":836,"o":"m 571 421 q 586 535 581 480 q 591 641 591 591 q 566 773 591 729 q 493 818 542 818 q 407 778 455 818 q 333 739 358 739 q 293 754 309 739 q 277 790 277 769 q 325 865 277 832 q 443 899 374 899 q 637 793 565 899 q 710 510 710 688 q 612 132 710 282 q 369 -17 514 -17 q 197 56 266 -17 q 129 240 129 129 q 203 461 129 374 q 388 549 278 549 q 501 518 457 549 q 571 421 545 487 m 538 335 q 508 456 538 414 q 425 499 479 499 q 303 411 351 499 q 256 183 256 323 q 285 62 256 104 q 368 21 314 21 q 490 109 442 21 q 538 335 538 197 "},"p":{"x_min":129,"x_max":752,"ha":836,"o":"m 254 95 l 254 -289 l 129 -289 l 129 760 l 254 760 l 254 662 q 337 748 285 718 q 457 778 389 778 q 673 671 595 778 q 752 376 752 564 q 673 85 752 191 q 457 -20 594 -20 q 335 9 387 -20 q 254 95 283 39 m 621 379 q 575 598 621 524 q 438 672 529 672 q 300 597 347 672 q 254 379 254 523 q 300 160 254 235 q 438 86 347 86 q 575 159 529 86 q 621 379 621 233 "},"‡":{"x_min":110,"x_max":726,"ha":836,"o":"m 726 151 l 478 151 l 478 -134 l 358 -134 l 358 151 l 110 151 l 110 255 l 358 255 l 358 624 l 110 624 l 110 728 l 358 728 l 358 1013 l 478 1013 l 478 728 l 726 728 l 726 624 l 478 624 l 478 255 l 726 255 l 726 151 "},"√":{"x_min":40,"x_max":803,"ha":836,"o":"m 67 496 l 40 581 l 237 648 l 385 152 l 702 1149 l 803 1149 l 803 1061 l 771 1061 l 427 -27 l 341 -27 l 174 532 l 67 496 "},"S":{"x_min":94,"x_max":744,"ha":836,"o":"m 686 978 l 686 839 q 560 899 623 879 q 434 920 498 920 q 281 874 337 920 q 225 752 225 829 q 261 650 225 685 q 399 591 298 615 l 471 575 q 678 470 613 541 q 744 276 744 399 q 654 56 744 132 q 394 -20 565 -20 q 251 -4 323 -20 q 107 41 179 10 l 107 187 q 254 114 184 137 q 394 91 323 91 q 555 137 497 91 q 613 267 613 184 q 573 383 613 343 q 435 445 533 423 l 362 462 q 157 558 221 494 q 94 731 94 623 q 185 949 94 867 q 427 1031 276 1031 q 550 1017 485 1031 q 686 978 614 1004 "},"/":{"x_min":69,"x_max":732,"ha":836,"o":"m 603 1013 l 732 1013 l 199 -128 l 69 -128 l 603 1013 "},"y":{"x_min":71,"x_max":782,"ha":836,"o":"m 581 244 q 502 35 550 164 q 412 -183 435 -143 q 334 -262 381 -236 q 225 -289 287 -289 l 125 -289 l 125 -185 l 198 -185 q 285 -153 253 -185 q 364 11 316 -121 l 71 760 l 202 760 l 428 165 l 649 760 l 782 760 l 581 244 "},"≈":{"x_min":60,"x_max":777,"ha":836,"o":"m 777 653 l 777 533 q 677 475 726 494 q 575 457 629 457 q 437 491 514 457 q 415 500 422 498 q 328 531 363 523 q 258 540 293 540 q 157 520 205 540 q 60 457 109 500 l 60 575 q 162 634 112 615 q 268 653 211 653 q 338 645 304 653 q 422 616 372 638 q 444 606 429 613 q 586 570 523 570 q 680 590 633 570 q 777 653 726 610 m 777 404 l 777 284 q 677 225 726 244 q 575 206 629 206 q 437 240 514 206 q 415 250 422 247 q 325 283 359 275 q 258 291 291 291 q 158 270 205 291 q 60 206 110 250 l 60 324 q 163 385 113 366 q 268 404 212 404 q 421 366 333 404 l 422 366 q 444 356 429 363 q 586 319 523 319 q 679 339 632 319 q 777 404 726 360 "},"g":{"x_min":83,"x_max":706,"ha":836,"o":"m 581 386 q 535 599 581 526 q 402 672 489 672 q 263 599 311 672 q 215 386 215 526 q 263 172 215 245 q 403 99 311 99 q 535 172 489 99 q 581 386 581 246 m 706 49 q 625 -209 706 -121 q 388 -298 544 -298 q 280 -288 336 -298 q 168 -260 224 -278 l 168 -137 q 288 -183 234 -168 q 388 -198 342 -198 q 534 -143 488 -198 q 581 31 581 -88 l 581 36 l 581 121 q 499 26 551 57 q 374 -5 448 -5 q 162 101 241 -5 q 83 386 83 207 q 162 671 83 565 q 374 778 241 778 q 498 748 447 778 q 581 658 549 719 l 581 757 l 706 757 l 706 49 "},"²":{"x_min":218,"x_max":605,"ha":836,"o":"m 327 530 l 605 530 l 605 453 l 218 453 l 218 527 l 374 680 q 470 787 443 746 q 498 863 498 829 q 464 931 498 905 q 374 957 430 957 q 303 944 341 957 q 222 908 264 932 l 222 993 q 307 1021 266 1012 q 388 1031 348 1031 q 542 985 484 1031 q 601 868 601 940 q 575 788 601 829 q 470 669 550 748 l 327 530 "},"ë":{"x_min":83,"x_max":754,"ha":836,"o":"m 754 411 l 754 350 l 213 350 l 213 345 q 278 153 213 221 q 460 86 342 86 q 585 105 520 86 q 725 163 651 124 l 725 39 q 587 -5 653 9 q 459 -20 521 -20 q 182 86 282 -20 q 83 379 83 192 q 180 669 83 560 q 441 778 278 778 q 670 679 586 778 q 754 411 754 581 m 629 448 q 577 614 626 557 q 435 672 527 672 q 287 612 345 672 q 218 447 228 552 l 629 448 m 226 1053 l 364 1053 l 364 916 l 226 916 l 226 1053 m 492 1053 l 629 1053 l 629 916 l 492 916 l 492 1053 "},"–":{"x_min":0,"x_max":836,"ha":836,"o":"m 0 429 l 836 429 l 836 333 l 0 333 l 0 429 "},"ƒ":{"x_min":0,"x_max":814,"ha":836,"o":"m 814 1031 l 814 920 q 761 948 789 938 q 704 958 733 958 q 595 916 634 958 q 544 786 556 874 l 514 575 l 719 575 l 719 478 l 497 478 l 429 47 q 332 -211 400 -133 q 139 -289 265 -289 q 65 -281 100 -289 q 0 -260 31 -274 l 0 -149 q 67 -180 33 -169 q 133 -192 101 -192 q 239 -141 198 -192 q 298 11 280 -90 l 377 478 l 206 478 l 206 575 l 393 575 l 426 799 q 511 986 444 918 q 679 1055 578 1055 q 745 1049 712 1055 q 814 1031 779 1043 "},"J":{"x_min":74,"x_max":648,"ha":836,"o":"m 74 41 l 74 201 q 201 118 135 146 q 337 91 267 91 q 472 141 434 91 q 511 330 511 192 l 511 898 l 253 898 l 253 1013 l 648 1013 l 648 330 q 576 59 648 138 q 337 -20 505 -20 q 208 -5 272 -20 q 74 41 143 9 "},"Ã":{"x_min":25,"x_max":811,"ha":836,"o":"m 417 892 l 273 374 l 562 374 l 417 892 m 334 1013 l 501 1013 l 811 0 l 669 0 l 594 264 l 239 264 l 166 0 l 25 0 l 334 1013 m 415 1159 l 376 1182 q 349 1195 359 1191 q 330 1199 338 1199 q 293 1182 307 1199 q 280 1135 280 1165 l 280 1131 l 195 1131 q 229 1239 195 1199 q 322 1279 264 1279 q 367 1273 346 1279 q 421 1250 388 1268 l 460 1229 q 486 1217 475 1221 q 508 1213 498 1213 q 543 1230 529 1213 q 557 1274 557 1247 l 557 1279 l 642 1279 q 606 1171 640 1211 q 514 1131 571 1131 q 471 1136 491 1131 q 415 1159 450 1141 "},"©":{"x_min":0,"x_max":836,"ha":836,"o":"m 586 726 l 586 653 q 508 681 546 672 q 431 691 471 691 q 306 640 352 691 q 261 502 261 589 q 308 364 261 412 q 444 316 355 316 q 517 324 482 316 q 586 352 552 333 l 586 281 q 511 257 550 265 q 431 250 473 250 q 239 317 309 250 q 169 502 169 385 q 239 688 169 619 q 431 757 310 757 q 511 749 473 757 q 586 726 550 741 m 417 851 q 284 825 345 851 q 172 749 222 800 q 95 636 121 699 q 69 502 69 574 q 95 369 69 431 q 172 257 121 307 q 284 179 223 205 q 417 154 346 154 q 550 179 489 154 q 663 257 612 205 q 740 369 715 308 q 766 502 766 431 q 740 636 766 574 q 663 749 714 699 q 551 825 612 800 q 417 851 490 851 m 417 921 q 577 890 503 921 q 712 798 651 859 q 804 662 773 737 q 836 502 836 588 q 805 344 836 417 q 712 208 774 270 q 577 115 650 146 q 417 85 503 85 q 259 115 332 85 q 123 208 185 146 q 30 344 61 270 q 0 502 0 417 q 31 662 0 588 q 123 798 62 737 q 258 890 184 859 q 417 921 332 921 "},"˘":{"x_min":206,"x_max":631,"ha":836,"o":"m 206 1091 l 287 1091 q 326 1014 294 1039 q 418 989 359 989 q 508 1014 475 989 q 550 1091 540 1039 l 631 1091 q 570 944 623 993 q 418 896 516 896 q 267 944 320 896 q 206 1091 213 993 "},"≥":{"x_min":60,"x_max":777,"ha":836,"o":"m 60 296 l 604 455 l 60 612 l 60 737 l 777 512 l 777 398 l 60 173 l 60 296 m 60 115 l 777 115 l 777 0 l 60 0 l 60 115 "},"D":{"x_min":93,"x_max":750,"ha":836,"o":"m 296 113 q 537 198 469 113 q 606 505 606 283 q 537 814 606 729 q 296 900 469 900 l 231 900 l 231 113 l 296 113 m 298 1013 q 640 889 530 1013 q 750 505 750 766 q 640 123 750 246 q 298 0 530 0 l 93 0 l 93 1013 l 298 1013 "},"ÿ":{"x_min":71,"x_max":782,"ha":836,"o":"m 581 244 q 502 35 550 164 q 412 -183 435 -143 q 334 -262 381 -236 q 225 -289 287 -289 l 125 -289 l 125 -185 l 198 -185 q 285 -153 253 -185 q 364 11 316 -121 l 71 760 l 202 760 l 428 165 l 649 760 l 782 760 l 581 244 m 216 1053 l 354 1053 l 354 916 l 216 916 l 216 1053 m 482 1053 l 619 1053 l 619 916 l 482 916 l 482 1053 "},"ł":{"x_min":51.78125,"x_max":702,"ha":836,"o":"m 434 273 q 464 148 434 190 q 556 106 495 106 l 702 106 l 702 0 l 543 0 q 370 71 431 0 q 309 273 309 143 l 309 470 l 106 329 l 51 404 l 309 581 l 309 957 l 109 957 l 109 1055 l 434 1055 l 434 665 l 647 812 l 702 738 l 434 554 l 434 273 "},"Ł":{"x_min":-6.78125,"x_max":773,"ha":836,"o":"m 146 1013 l 284 1013 l 284 594 l 497 743 l 550 668 l 284 482 l 284 115 l 773 115 l 773 0 l 146 0 l 146 387 l 47 315 l -6 389 l 146 497 l 146 1013 "},"$":{"x_min":129,"x_max":756,"ha":836,"o":"m 470 393 l 470 99 q 586 140 544 101 q 628 247 628 179 q 590 345 628 310 q 470 393 552 380 m 402 522 l 402 802 q 291 761 331 799 q 252 660 252 723 q 288 567 252 601 q 402 522 325 534 m 470 -204 l 402 -204 l 401 0 q 263 18 332 3 q 129 62 195 34 l 129 184 q 265 119 196 142 q 402 96 334 97 l 402 406 q 197 489 266 427 q 129 653 129 551 q 200 823 129 759 q 402 896 272 886 l 402 1055 l 470 1055 l 470 896 q 579 882 524 892 q 691 855 634 872 l 691 738 q 578 782 633 766 q 470 801 524 798 l 470 508 q 682 422 609 487 q 756 251 756 356 q 677 77 756 147 q 470 1 598 7 l 470 -204 "},"w":{"x_min":0,"x_max":836,"ha":836,"o":"m 0 760 l 123 760 l 255 145 l 364 538 l 470 538 l 580 145 l 712 760 l 836 760 l 658 0 l 539 0 l 417 416 l 296 0 l 177 0 l 0 760 "},"\\":{"x_min":69,"x_max":732,"ha":836,"o":"m 199 1013 l 732 -128 l 603 -128 l 69 1013 l 199 1013 "},"∫":{"x_min":88,"x_max":746,"ha":836,"o":"m 266 -178 q 347 288 338 -178 q 350 400 349 361 q 422 900 358 749 q 623 1051 486 1051 q 712 1022 678 1051 q 746 949 746 993 q 724 891 746 912 q 665 870 702 870 q 617 882 636 870 q 590 919 598 895 q 583 954 586 929 q 569 979 580 979 q 487 559 496 979 q 482 353 484 428 q 406 -111 470 28 q 209 -252 342 -252 q 122 -223 156 -252 q 88 -151 88 -195 q 111 -92 88 -113 q 175 -71 134 -71 q 213 -80 197 -71 q 240 -109 230 -90 q 250 -149 246 -121 q 266 -178 253 -178 "},"Ì":{"x_min":137,"x_max":699,"ha":836,"o":"m 137 1013 l 699 1013 l 699 898 l 487 898 l 487 115 l 699 115 l 699 0 l 137 0 l 137 115 l 349 115 l 349 898 l 137 898 l 137 1013 m 380 1288 l 514 1109 l 409 1109 l 256 1288 l 380 1288 "},"Ç":{"x_min":94,"x_max":727,"ha":836,"o":"m 727 36 q 619 -6 674 8 q 503 -20 565 -20 q 201 117 308 -20 q 94 505 94 255 q 202 892 94 753 q 503 1031 310 1031 q 619 1017 565 1031 q 727 975 674 1003 l 727 835 q 619 898 676 876 q 503 920 561 920 q 303 816 369 920 q 237 505 237 713 q 303 194 237 297 q 503 91 369 91 q 620 112 562 91 q 727 176 677 134 l 727 36 m 543 0 q 599 -77 581 -42 q 617 -145 617 -113 q 576 -237 617 -206 q 455 -268 535 -268 q 395 -263 424 -268 q 336 -251 365 -259 l 336 -163 q 384 -179 359 -174 q 442 -185 410 -185 q 502 -168 481 -185 q 523 -121 523 -152 q 508 -71 523 -100 q 463 0 493 -41 l 543 0 "},"C":{"x_min":94,"x_max":727,"ha":836,"o":"m 727 36 q 619 -6 674 8 q 503 -20 565 -20 q 201 117 308 -20 q 94 505 94 255 q 202 892 94 753 q 503 1031 310 1031 q 619 1017 565 1031 q 727 975 674 1003 l 727 835 q 619 898 676 876 q 503 920 561 920 q 303 816 369 920 q 237 505 237 713 q 303 194 237 297 q 503 91 369 91 q 620 112 562 91 q 727 176 677 134 l 727 36 "},"!":{"x_min":350,"x_max":488,"ha":836,"o":"m 350 1013 l 488 1013 l 488 568 l 473 326 l 364 326 l 350 568 l 350 1013 m 350 172 l 488 172 l 488 0 l 350 0 l 350 172 "},"ç":{"x_min":132,"x_max":719,"ha":836,"o":"m 719 38 q 615 -5 668 9 q 506 -20 562 -20 q 231 85 330 -20 q 132 379 132 191 q 231 672 132 566 q 506 778 330 778 q 613 763 561 778 q 719 720 666 749 l 719 589 q 619 652 669 632 q 507 672 570 672 q 326 596 389 672 q 264 379 264 520 q 327 162 264 238 q 507 86 390 86 q 623 105 572 86 q 719 168 674 125 l 719 38 m 546 0 q 602 -77 584 -42 q 620 -145 620 -113 q 579 -237 620 -206 q 458 -268 538 -268 q 398 -263 427 -268 q 339 -251 368 -259 l 339 -163 q 387 -179 362 -174 q 445 -185 413 -185 q 505 -168 484 -185 q 526 -121 526 -152 q 511 -71 526 -100 q 466 0 496 -41 l 546 0 "},"È":{"x_min":134,"x_max":748,"ha":836,"o":"m 134 1013 l 735 1013 l 735 898 l 271 898 l 271 598 l 715 598 l 715 483 l 271 483 l 271 115 l 748 115 l 748 0 l 134 0 l 134 1013 m 392 1288 l 526 1109 l 421 1109 l 268 1288 l 392 1288 "},"X":{"x_min":12,"x_max":823,"ha":836,"o":"m 58 1013 l 205 1013 l 427 631 l 653 1013 l 801 1013 l 497 536 l 823 0 l 675 0 l 427 436 l 159 0 l 12 0 l 350 536 l 58 1013 "},"ﬁ":{"x_min":24,"x_max":732,"ha":836,"o":"m 607 1054 l 732 1054 l 732 896 l 607 896 l 607 1054 m 526 1055 l 526 951 l 404 951 q 311 923 337 951 q 285 826 285 896 l 285 758 l 732 758 l 732 0 l 607 0 l 607 662 l 285 662 l 285 0 l 160 0 l 160 662 l 24 662 l 24 759 l 160 759 l 160 812 q 217 996 160 937 q 396 1055 274 1055 l 526 1055 "},"ô":{"x_min":93,"x_max":743,"ha":836,"o":"m 417 672 q 273 598 322 672 q 225 379 225 524 q 273 160 225 234 q 417 86 322 86 q 562 160 513 86 q 611 379 611 234 q 562 598 611 524 q 417 672 513 672 m 417 778 q 659 675 575 778 q 743 379 743 573 q 659 82 743 184 q 417 -20 576 -20 q 176 82 259 -20 q 93 379 93 184 q 176 675 93 573 q 417 778 259 778 m 367 1111 l 467 1111 l 634 856 l 539 856 l 417 1022 l 295 856 l 201 856 l 367 1111 "},"đ":{"x_min":83,"x_max":836,"ha":836,"o":"m 581 662 l 581 872 l 374 872 l 374 954 l 581 954 l 581 1055 l 706 1055 l 706 954 l 836 954 l 836 872 l 706 872 l 706 0 l 581 0 l 581 95 q 498 9 549 39 q 378 -20 446 -20 q 161 86 240 -20 q 83 381 83 193 q 162 672 83 566 q 378 778 241 778 q 499 748 446 778 q 581 662 551 718 m 215 379 q 261 159 215 233 q 396 86 307 86 q 533 160 486 86 q 581 379 581 235 q 533 597 581 523 q 396 672 486 672 q 261 598 307 672 q 215 379 215 524 "},"}":{"x_min":150,"x_max":687,"ha":836,"o":"m 150 -129 l 196 -129 q 320 -99 291 -129 q 350 26 350 -69 l 350 194 q 380 348 350 300 q 486 415 411 396 q 380 480 411 432 q 350 634 350 528 l 350 802 q 320 928 350 898 q 196 958 291 958 l 150 958 l 150 1055 l 192 1055 q 418 1005 361 1055 q 475 805 475 955 l 475 642 q 511 502 475 541 q 643 464 547 464 l 687 464 l 687 367 l 643 367 q 511 327 547 367 q 475 185 475 288 l 475 23 q 418 -176 475 -126 q 192 -227 361 -227 l 150 -227 l 150 -129 "},"â":{"x_min":90,"x_max":718,"ha":836,"o":"m 476 382 l 434 382 q 270 343 325 382 q 215 228 215 305 q 256 122 215 160 q 371 84 297 84 q 533 155 474 84 q 593 354 592 227 l 593 382 l 476 382 m 718 433 l 718 0 l 593 0 l 593 111 q 492 12 552 44 q 344 -20 431 -20 q 159 45 228 -20 q 90 221 90 111 q 175 414 90 348 q 425 480 260 480 l 593 480 l 593 499 q 546 631 592 590 q 401 672 501 672 q 272 653 337 672 q 146 600 207 635 l 146 725 q 278 764 215 751 q 401 778 341 778 q 562 750 495 778 q 670 666 629 722 q 707 583 696 632 q 718 433 718 533 m 367 1111 l 467 1111 l 634 856 l 539 856 l 417 1022 l 295 856 l 201 856 l 367 1111 "},"ø":{"x_min":31.90625,"x_max":795.90625,"ha":836,"o":"m 594 528 l 281 149 q 339 101 305 117 q 418 86 374 86 q 562 160 513 86 q 611 379 611 234 q 606 451 611 414 q 594 528 602 489 m 554 608 q 496 656 530 640 q 418 672 463 672 q 273 599 323 672 q 223 389 223 526 q 227 317 223 357 q 241 230 232 278 l 554 608 m 147 121 q 106 236 120 170 q 93 379 93 302 q 176 675 93 573 q 417 778 259 778 q 539 759 485 778 q 633 702 592 740 l 732 822 l 795 769 l 684 637 q 728 527 713 592 q 743 378 743 461 q 659 82 743 184 q 417 -20 576 -20 q 295 0 348 -20 q 203 60 241 20 l 94 -65 l 31 -13 l 147 121 "},"Ä":{"x_min":25,"x_max":811,"ha":836,"o":"m 417 892 l 273 374 l 562 374 l 417 892 m 334 1013 l 501 1013 l 811 0 l 669 0 l 594 264 l 239 264 l 166 0 l 25 0 l 334 1013 m 216 1269 l 354 1269 l 354 1131 l 216 1131 l 216 1269 m 482 1269 l 619 1269 l 619 1131 l 482 1131 l 482 1269 "},"‰":{"x_min":0,"x_max":836,"ha":836,"o":"m 49 384 l 24 450 l 731 731 l 758 665 l 49 384 m 113 196 q 145 114 113 147 q 224 82 177 82 q 303 115 270 82 q 337 196 337 149 q 303 275 337 241 q 224 309 269 309 q 145 276 177 309 q 113 196 113 243 m 31 196 q 86 334 31 278 q 224 390 142 390 q 361 333 305 390 q 418 196 418 277 q 361 56 418 113 q 224 0 304 0 q 86 56 142 0 q 31 196 31 112 m 82 776 q 115 696 82 729 q 195 663 148 663 q 274 696 241 663 q 308 776 308 729 q 274 855 308 821 q 195 889 240 889 q 115 855 148 889 q 82 776 82 822 m 0 776 q 56 914 0 857 q 194 971 112 971 q 332 914 276 971 q 389 776 389 857 q 332 637 389 694 q 194 580 276 580 q 56 636 112 580 q 0 776 0 693 m 529 196 q 561 114 529 147 q 641 82 594 82 q 721 114 688 82 q 754 196 754 147 q 720 275 754 241 q 641 309 687 309 q 561 276 594 309 q 529 196 529 243 m 447 196 q 503 333 447 277 q 641 390 559 390 q 779 333 722 390 q 836 196 836 277 q 779 56 836 113 q 641 0 722 0 q 503 56 559 0 q 447 196 447 113 "},"N":{"x_min":94,"x_max":742,"ha":836,"o":"m 94 1013 l 267 1013 l 610 179 l 610 1013 l 742 1013 l 742 0 l 568 0 l 226 833 l 226 0 l 94 0 l 94 1013 "},"—":{"x_min":0,"x_max":836,"ha":836,"o":"m 0 429 l 836 429 l 836 333 l 0 333 l 0 429 "},"2":{"x_min":103,"x_max":717.78125,"ha":836,"o":"m 252 115 l 717 115 l 717 0 l 103 0 l 103 115 q 324 351 229 248 q 455 495 419 453 q 547 629 523 578 q 571 734 571 681 q 521 867 571 819 q 384 916 471 916 q 254 893 322 916 q 111 826 186 871 l 111 964 q 248 1014 180 997 q 381 1031 315 1031 q 620 951 529 1031 q 711 744 711 872 q 680 614 711 679 q 582 470 650 549 q 472 348 544 426 q 252 115 400 270 "},"ü":{"x_min":132,"x_max":713,"ha":836,"o":"m 132 287 l 132 758 l 257 758 l 257 287 q 293 137 257 185 q 405 89 329 89 q 541 151 494 89 q 588 328 588 213 l 588 758 l 713 758 l 713 0 l 588 0 l 588 114 q 497 14 554 48 q 363 -20 439 -20 q 189 56 246 -20 q 132 287 132 132 m 216 1053 l 354 1053 l 354 916 l 216 916 l 216 1053 m 482 1053 l 619 1053 l 619 916 l 482 916 l 482 1053 "},"Ó":{"x_min":79,"x_max":757,"ha":836,"o":"m 614 505 q 568 824 614 728 q 417 920 522 920 q 267 824 313 920 q 222 505 222 728 q 267 186 222 282 q 417 91 313 91 q 568 186 522 91 q 614 505 614 281 m 757 505 q 673 110 757 240 q 417 -20 589 -20 q 162 109 245 -20 q 79 505 79 239 q 162 900 79 770 q 417 1031 246 1031 q 673 900 589 1031 q 757 505 757 770 m 455 1288 l 582 1288 l 426 1109 l 322 1109 l 455 1288 "},"˜":{"x_min":195,"x_max":642,"ha":836,"o":"m 415 929 l 376 966 q 351 986 362 980 q 330 993 340 993 q 292 967 304 993 q 279 888 280 942 l 195 888 q 230 1028 195 978 q 326 1079 264 1079 q 374 1069 352 1079 q 421 1037 396 1060 l 460 1000 q 485 980 474 986 q 505 974 496 974 q 544 999 531 974 q 557 1079 556 1024 l 642 1079 q 606 938 641 988 q 510 888 572 888 q 462 897 483 888 q 415 929 440 906 "},"ˇ":{"x_min":201,"x_max":634,"ha":836,"o":"m 367 856 l 201 1111 l 295 1111 l 417 944 l 539 1111 l 634 1111 l 467 856 l 367 856 "},"Ÿ":{"x_min":25,"x_max":812,"ha":836,"o":"m 25 1013 l 171 1013 l 418 565 l 664 1013 l 812 1013 l 487 454 l 487 0 l 349 0 l 349 454 l 25 1013 m 216 1269 l 354 1269 l 354 1131 l 216 1131 l 216 1269 m 482 1269 l 619 1269 l 619 1131 l 482 1131 l 482 1269 "},"€":{"x_min":25,"x_max":720,"ha":836,"o":"m 143 643 q 268 932 175 834 q 513 1031 361 1031 q 619 1017 570 1031 q 720 975 669 1003 l 720 835 q 621 899 675 876 q 514 922 567 922 q 356 851 415 922 q 280 643 297 781 l 607 643 l 573 570 l 274 570 q 272 541 272 556 q 272 494 272 525 q 272 471 272 484 q 273 443 272 458 l 518 443 l 484 368 l 280 368 q 355 159 296 230 q 514 89 414 89 q 621 111 567 89 q 720 176 674 134 l 720 36 q 620 -6 671 7 q 513 -20 570 -20 q 266 77 359 -20 q 143 368 173 175 l 25 368 l 58 443 l 137 443 q 136 464 137 451 q 135 505 135 495 q 136 549 135 517 q 137 570 137 562 l 25 570 l 58 643 l 143 643 "},"ß":{"x_min":128,"x_max":780,"ha":836,"o":"m 128 770 q 199 985 128 915 q 416 1055 270 1055 q 626 979 555 1055 q 699 758 697 904 q 536 706 593 748 q 480 596 480 664 q 498 537 480 563 q 562 482 517 511 l 602 457 q 742 339 704 394 q 780 205 780 283 q 704 40 780 100 q 495 -20 628 -20 q 402 -11 448 -20 q 312 13 356 -3 l 312 124 q 408 93 363 103 q 493 83 453 83 q 610 115 567 83 q 654 203 654 148 q 631 283 654 251 q 528 366 609 316 l 482 392 q 389 475 420 430 q 359 574 359 520 q 413 719 359 661 q 574 801 468 777 q 531 912 572 873 q 414 951 490 951 q 293 906 332 951 q 255 767 255 862 l 255 0 l 128 0 l 128 770 "},"s":{"x_min":144,"x_max":698,"ha":836,"o":"m 659 734 l 659 612 q 551 658 605 643 q 440 674 497 674 q 314 646 356 674 q 273 562 273 619 q 304 486 273 511 q 459 437 335 461 l 509 428 q 650 357 602 410 q 698 219 698 304 q 617 43 698 107 q 395 -20 537 -20 q 277 -8 339 -20 q 144 27 215 3 l 144 156 q 277 102 213 120 q 398 84 341 84 q 526 117 481 84 q 572 211 572 151 q 405 332 572 298 l 400 333 l 353 343 q 196 414 245 364 q 147 550 147 463 q 220 718 147 659 q 431 778 294 778 q 548 767 492 778 q 659 734 604 756 "},"?":{"x_min":165,"x_max":705,"ha":836,"o":"m 464 272 l 335 272 l 335 376 q 355 489 335 442 q 433 591 376 535 l 494 651 q 552 721 536 691 q 568 784 568 751 q 523 882 568 845 q 405 920 479 920 q 291 896 352 920 q 165 827 231 873 l 165 955 q 293 1012 228 993 q 428 1031 358 1031 q 630 965 555 1031 q 705 791 705 900 q 682 695 705 740 q 595 588 659 651 l 536 530 q 476 457 489 485 q 464 387 464 428 l 464 355 l 464 272 m 330 172 l 468 172 l 468 0 l 330 0 l 330 172 "},"c":{"x_min":132,"x_max":719,"ha":836,"o":"m 719 38 q 615 -5 668 9 q 506 -20 562 -20 q 231 85 330 -20 q 132 379 132 191 q 231 672 132 566 q 506 778 330 778 q 613 763 561 778 q 719 720 666 749 l 719 589 q 619 652 669 632 q 507 672 570 672 q 326 596 389 672 q 264 379 264 520 q 327 162 264 238 q 507 86 390 86 q 623 105 572 86 q 719 168 674 125 l 719 38 "},"¶":{"x_min":72,"x_max":699,"ha":836,"o":"m 394 1013 l 699 1013 l 699 -134 l 603 -134 l 603 930 l 473 930 l 473 -134 l 377 -134 l 377 441 q 151 527 231 452 q 72 727 72 602 q 160 934 72 855 q 394 1013 248 1013 "},"•":{"x_min":216,"x_max":619,"ha":836,"o":"m 216 516 q 274 658 216 600 q 417 717 332 717 q 560 658 501 717 q 619 516 619 600 q 559 373 619 432 q 416 315 500 315 q 274 373 332 315 q 216 516 216 431 "},"(":{"x_min":289,"x_max":600,"ha":836,"o":"m 600 1054 q 465 745 509 899 q 421 436 421 592 q 465 126 421 280 q 600 -183 509 -27 l 491 -183 q 339 131 389 -21 q 289 436 289 284 q 339 740 289 587 q 491 1054 389 893 l 600 1054 "},"◊":{"x_min":79,"x_max":757,"ha":836,"o":"m 417 955 l 156 401 l 417 -158 l 678 401 l 417 955 m 417 1121 l 757 401 l 417 -324 l 79 401 l 417 1121 "},"­":{"x_min":241,"x_max":594,"ha":836,"o":"m 241 436 l 594 436 l 594 325 l 241 325 l 241 436 "},":":{"x_min":332,"x_max":503,"ha":836,"o":"m 332 721 l 503 721 l 503 515 l 332 515 l 332 721 m 332 207 l 503 207 l 503 0 l 332 0 l 332 207 "},"Û":{"x_min":100,"x_max":736,"ha":836,"o":"m 100 388 l 100 1013 l 238 1013 l 238 325 q 242 220 238 251 q 256 171 246 188 q 318 111 277 131 q 418 91 359 91 q 517 111 477 91 q 580 171 558 131 q 594 220 590 188 q 599 324 599 251 l 599 388 l 599 1013 l 736 1013 l 736 388 q 716 167 736 233 q 649 59 697 102 q 547 0 605 19 q 418 -20 489 -20 q 289 0 346 -20 q 186 59 231 19 q 119 168 139 101 q 100 388 100 235 m 353 1289 l 482 1289 l 625 1109 l 530 1109 l 417 1229 l 305 1109 l 211 1109 l 353 1289 "},"V":{"x_min":39,"x_max":798,"ha":836,"o":"m 418 115 l 656 1013 l 798 1013 l 501 0 l 335 0 l 39 1013 l 180 1013 l 418 115 "}," ":{"x_min":0,"x_max":0,"ha":836},"@":{"x_min":18,"x_max":799,"ha":836,"o":"m 704 369 q 660 509 704 456 q 544 562 617 562 q 427 509 471 562 q 384 369 384 456 q 427 228 384 281 q 544 176 471 176 q 660 228 617 176 q 704 369 704 281 m 799 92 l 701 92 l 701 166 q 631 100 675 123 q 531 78 587 78 q 350 160 422 78 q 279 369 279 242 q 350 578 279 496 q 531 661 422 661 q 631 637 585 661 q 701 572 676 613 l 701 614 q 641 785 701 720 q 483 850 581 850 q 217 720 316 850 q 119 368 119 590 q 230 13 119 145 q 528 -119 342 -119 q 601 -112 565 -119 q 677 -91 638 -105 l 710 -182 q 625 -207 667 -199 q 544 -216 583 -216 q 160 -58 302 -216 q 18 368 18 99 q 145 789 18 632 q 487 946 273 946 q 714 855 629 946 q 799 613 799 765 l 799 92 "},"¾":{"x_min":18,"x_max":755,"ha":836,"o":"m 342 865 q 439 814 406 851 q 473 724 473 778 q 408 594 473 639 q 223 549 344 549 q 145 556 184 549 q 67 577 107 563 l 67 659 q 152 631 113 640 q 221 623 190 623 q 329 650 289 623 q 370 724 370 678 q 332 800 370 774 q 221 826 295 826 l 176 826 l 176 899 l 226 899 q 323 920 290 899 q 357 982 357 941 q 324 1041 357 1020 q 232 1063 291 1063 q 164 1054 202 1063 q 86 1031 126 1046 l 86 1113 q 172 1130 132 1124 q 246 1137 212 1137 q 401 1097 344 1137 q 459 989 459 1057 q 429 910 459 941 q 342 865 399 878 m 34 342 l 18 415 l 736 593 l 755 520 l 34 342 m 553 383 l 663 383 l 663 18 l 742 18 l 742 -57 l 663 -57 l 663 -183 l 569 -183 l 569 -57 l 307 -57 l 307 25 l 553 383 m 569 298 l 383 18 l 569 18 l 569 298 "},"i":{"x_min":120,"x_max":741,"ha":836,"o":"m 173 760 l 493 760 l 493 97 l 741 97 l 741 0 l 120 0 l 120 97 l 368 97 l 368 663 l 173 663 l 173 760 m 368 1055 l 493 1055 l 493 897 l 368 897 l 368 1055 "},"≤":{"x_min":58,"x_max":775,"ha":836,"o":"m 775 296 l 775 173 l 58 398 l 58 512 l 775 737 l 775 612 l 231 455 l 775 296 m 775 115 l 775 0 l 58 0 l 58 115 l 775 115 "},"m":{"x_min":74,"x_max":770,"ha":836,"o":"m 458 682 q 517 754 481 731 q 602 778 552 778 q 732 707 694 778 q 770 440 770 636 l 770 0 l 656 0 l 656 435 q 638 634 656 595 q 572 674 620 674 q 498 632 518 674 q 478 435 478 590 l 478 0 l 364 0 l 364 435 q 344 635 364 597 q 275 674 325 674 q 206 632 225 674 q 187 435 187 590 l 187 0 l 74 0 l 74 760 l 187 760 l 187 694 q 242 756 209 735 q 319 778 276 778 q 405 754 370 778 q 458 682 439 730 "},"ž":{"x_min":138,"x_max":706,"ha":836,"o":"m 154 761 l 706 761 l 706 647 l 269 102 l 706 102 l 706 0 l 138 0 l 138 115 l 574 661 l 154 661 l 154 761 m 367 856 l 201 1111 l 295 1111 l 417 944 l 539 1111 l 634 1111 l 467 856 l 367 856 "},"á":{"x_min":90,"x_max":718,"ha":836,"o":"m 476 382 l 434 382 q 270 343 325 382 q 215 228 215 305 q 256 122 215 160 q 371 84 297 84 q 533 155 474 84 q 593 354 592 227 l 593 382 l 476 382 m 718 433 l 718 0 l 593 0 l 593 111 q 492 12 552 44 q 344 -20 431 -20 q 159 45 228 -20 q 90 221 90 111 q 175 414 90 348 q 425 480 260 480 l 593 480 l 593 499 q 546 631 592 590 q 401 672 501 672 q 272 653 337 672 q 146 600 207 635 l 146 725 q 278 764 215 751 q 401 778 341 778 q 562 750 495 778 q 670 666 629 722 q 707 583 696 632 q 718 433 718 533 m 512 1111 l 647 1111 l 426 856 l 322 856 l 512 1111 "},"×":{"x_min":102,"x_max":735,"ha":836,"o":"m 102 198 l 339 434 l 102 671 l 180 751 l 418 513 l 656 751 l 735 671 l 497 434 l 733 198 l 654 118 l 418 355 l 182 118 l 102 198 "},"İ":{"x_min":137,"x_max":699,"ha":836,"o":"m 137 1013 l 699 1013 l 699 898 l 487 898 l 487 115 l 699 115 l 699 0 l 137 0 l 137 115 l 349 115 l 349 898 l 137 898 l 137 1013 m 349 1270 l 488 1270 l 488 1131 l 349 1131 l 349 1270 "},"K":{"x_min":93,"x_max":831.234375,"ha":836,"o":"m 93 1013 l 231 1013 l 231 562 l 658 1013 l 819 1013 l 425 599 l 831 0 l 665 0 l 335 507 l 231 396 l 231 0 l 93 0 l 93 1013 "},"7":{"x_min":94,"x_max":732,"ha":836,"o":"m 94 1013 l 732 1013 l 732 954 l 369 0 l 226 0 l 579 898 l 94 898 l 94 1013 "},"¨":{"x_min":216,"x_max":619,"ha":836,"o":"m 216 1053 l 354 1053 l 354 916 l 216 916 l 216 1053 m 482 1053 l 619 1053 l 619 916 l 482 916 l 482 1053 "},"Y":{"x_min":25,"x_max":812,"ha":836,"o":"m 25 1013 l 171 1013 l 418 565 l 664 1013 l 812 1013 l 487 454 l 487 0 l 349 0 l 349 454 l 25 1013 "},"E":{"x_min":134,"x_max":748,"ha":836,"o":"m 134 1013 l 735 1013 l 735 898 l 271 898 l 271 598 l 715 598 l 715 483 l 271 483 l 271 115 l 748 115 l 748 0 l 134 0 l 134 1013 "},"Ô":{"x_min":79,"x_max":757,"ha":836,"o":"m 614 505 q 568 824 614 728 q 417 920 522 920 q 267 824 313 920 q 222 505 222 728 q 267 186 222 282 q 417 91 313 91 q 568 186 522 91 q 614 505 614 281 m 757 505 q 673 110 757 240 q 417 -20 589 -20 q 162 109 245 -20 q 79 505 79 239 q 162 900 79 770 q 417 1031 246 1031 q 673 900 589 1031 q 757 505 757 770 m 353 1289 l 482 1289 l 625 1109 l 530 1109 l 417 1229 l 305 1109 l 211 1109 l 353 1289 "},"Ï":{"x_min":137,"x_max":699,"ha":836,"o":"m 137 1013 l 699 1013 l 699 898 l 487 898 l 487 115 l 699 115 l 699 0 l 137 0 l 137 115 l 349 115 l 349 898 l 137 898 l 137 1013 m 216 1269 l 354 1269 l 354 1131 l 216 1131 l 216 1269 m 482 1269 l 619 1269 l 619 1131 l 482 1131 l 482 1269 "},"‹":{"x_min":235,"x_max":553,"ha":836,"o":"m 553 718 l 553 588 l 348 406 l 553 224 l 553 95 l 235 378 l 235 434 l 553 718 "},"±":{"x_min":60,"x_max":777,"ha":836,"o":"m 60 115 l 777 115 l 777 0 l 60 0 l 60 115 m 475 794 l 475 571 l 777 571 l 777 456 l 475 456 l 475 231 l 361 231 l 361 456 l 60 456 l 60 571 l 361 571 l 361 794 l 475 794 "},"ì":{"x_min":120,"x_max":741,"ha":836,"o":"m 173 760 l 493 760 l 493 97 l 741 97 l 741 0 l 120 0 l 120 97 l 368 97 l 368 663 l 173 663 l 173 760 m 323 1111 l 514 856 l 409 856 l 189 1111 l 323 1111 "},"|":{"x_min":359,"x_max":474,"ha":836,"o":"m 474 1055 l 474 -334 l 359 -334 l 359 1055 l 474 1055 "},"§":{"x_min":135,"x_max":703,"ha":836,"o":"m 635 992 l 635 881 q 529 920 578 907 q 442 933 481 933 q 340 905 376 933 q 304 830 304 878 q 443 692 304 769 q 471 676 461 682 q 658 543 614 595 q 703 422 703 491 q 672 314 703 361 q 578 230 641 266 q 639 158 619 195 q 659 78 659 121 q 589 -75 659 -18 q 402 -132 520 -132 q 300 -122 353 -132 q 189 -93 248 -112 l 189 18 q 298 -21 248 -8 q 387 -34 348 -34 q 495 -5 457 -34 q 534 74 534 22 q 383 226 534 143 l 366 235 q 178 369 221 317 q 135 490 135 421 q 166 600 135 552 q 260 682 198 649 q 199 750 219 712 q 179 835 179 788 q 246 977 179 923 q 428 1031 314 1031 q 528 1021 476 1031 q 635 992 580 1011 m 328 635 q 266 574 286 604 q 246 511 246 543 q 293 414 246 460 q 509 278 341 368 q 571 339 551 308 q 592 401 592 369 q 543 499 592 453 q 328 635 494 545 "},"q":{"x_min":93,"x_max":716,"ha":836,"o":"m 225 376 q 270 157 225 231 q 407 84 316 84 q 544 158 497 84 q 591 376 591 232 q 544 594 591 520 q 407 669 497 669 q 270 595 316 669 q 225 376 225 521 m 591 94 q 508 8 560 38 q 387 -22 456 -22 q 172 83 251 -22 q 93 373 93 188 q 171 668 93 562 q 387 775 250 775 q 507 745 455 775 q 591 659 559 715 l 591 757 l 716 757 l 716 -292 l 591 -292 l 591 94 "},"b":{"x_min":131,"x_max":754,"ha":836,"o":"m 622 379 q 576 598 622 524 q 440 672 530 672 q 302 597 349 672 q 256 379 256 523 q 302 160 256 235 q 440 86 349 86 q 576 159 530 86 q 622 379 622 233 m 256 662 q 338 748 285 718 q 459 778 390 778 q 675 672 596 778 q 754 381 754 566 q 675 86 754 193 q 458 -20 596 -20 q 339 9 390 -20 q 256 95 287 39 l 256 0 l 131 0 l 131 1055 l 256 1055 l 256 662 "},"ﬂ":{"x_min":24,"x_max":732,"ha":836,"o":"m 732 1055 l 732 0 l 607 0 l 607 951 l 404 951 q 311 923 337 951 q 285 826 285 896 l 285 758 l 484 758 l 484 662 l 285 662 l 285 0 l 160 0 l 160 662 l 24 662 l 24 759 l 160 759 l 160 812 q 217 995 160 936 q 396 1055 274 1055 l 732 1055 "},"®":{"x_min":0,"x_max":836,"ha":836,"o":"m 406 746 q 555 712 506 746 q 604 611 604 679 q 574 531 604 562 q 490 490 544 499 q 522 464 503 486 q 568 401 542 441 l 645 275 l 548 275 l 475 393 q 421 461 442 447 q 370 476 401 476 l 333 476 l 333 275 l 245 275 l 245 746 l 406 746 m 402 689 l 333 689 l 333 532 l 402 532 q 488 550 463 532 q 514 611 514 568 q 488 671 514 653 q 402 689 463 689 m 417 921 q 577 890 503 921 q 712 798 651 859 q 804 662 773 737 q 836 502 836 588 q 805 344 836 417 q 712 208 774 270 q 577 115 650 146 q 417 85 503 85 q 259 115 332 85 q 123 208 185 146 q 30 344 61 270 q 0 502 0 417 q 31 662 0 588 q 123 798 62 737 q 258 890 184 859 q 417 921 332 921 m 417 851 q 284 825 345 851 q 172 749 222 800 q 95 636 121 699 q 69 502 69 574 q 95 369 69 431 q 172 257 121 307 q 284 179 223 205 q 417 154 346 154 q 550 179 489 154 q 663 257 612 205 q 740 369 715 308 q 766 502 766 431 q 740 636 766 574 q 663 749 714 699 q 551 825 612 800 q 417 851 490 851 "},"L":{"x_min":146,"x_max":773,"ha":836,"o":"m 146 1013 l 284 1013 l 284 115 l 773 115 l 773 0 l 146 0 l 146 1013 "}," ":{"x_min":0,"x_max":0,"ha":836},"∑":{"x_min":97,"x_max":736,"ha":836,"o":"m 225 -203 l 736 -203 l 736 -296 l 97 -296 l 97 -233 l 469 390 l 97 965 l 97 1030 l 722 1030 l 722 935 l 225 935 l 579 390 l 225 -203 "},"À":{"x_min":25,"x_max":811,"ha":836,"o":"m 417 892 l 273 374 l 562 374 l 417 892 m 334 1013 l 501 1013 l 811 0 l 669 0 l 594 264 l 239 264 l 166 0 l 25 0 l 334 1013 m 380 1288 l 514 1109 l 409 1109 l 256 1288 l 380 1288 "},"+":{"x_min":60,"x_max":777,"ha":836,"o":"m 475 794 l 475 493 l 777 493 l 777 378 l 475 378 l 475 77 l 361 77 l 361 378 l 60 378 l 60 493 l 361 493 l 361 794 l 475 794 "},"½":{"x_min":18,"x_max":755,"ha":836,"o":"m 71 634 l 210 634 l 210 1048 l 59 1020 l 59 1099 l 214 1125 l 308 1125 l 308 634 l 446 634 l 446 559 l 71 559 l 71 634 m 34 342 l 18 415 l 736 593 l 755 520 l 34 342 m 463 -106 l 741 -106 l 741 -183 l 354 -183 l 354 -108 l 510 44 q 606 151 579 110 q 634 227 634 193 q 600 295 634 269 q 510 321 566 321 q 439 308 477 321 q 358 272 400 296 l 358 357 q 443 385 402 376 q 524 395 484 395 q 678 349 620 395 q 737 232 737 304 q 711 152 737 193 q 606 33 686 112 l 463 -106 "},"Ë":{"x_min":134,"x_max":748,"ha":836,"o":"m 134 1013 l 735 1013 l 735 898 l 271 898 l 271 598 l 715 598 l 715 483 l 271 483 l 271 115 l 748 115 l 748 0 l 134 0 l 134 1013 m 228 1269 l 366 1269 l 366 1131 l 228 1131 l 228 1269 m 494 1269 l 631 1269 l 631 1131 l 494 1131 l 494 1269 "},"'":{"x_min":358,"x_max":473,"ha":836,"o":"m 473 1013 l 473 637 l 358 637 l 358 1013 l 473 1013 "},"Š":{"x_min":94,"x_max":744,"ha":836,"o":"m 686 978 l 686 839 q 560 899 623 879 q 434 920 498 920 q 281 874 337 920 q 225 752 225 829 q 261 650 225 685 q 399 591 298 615 l 471 575 q 678 470 613 541 q 744 276 744 399 q 654 56 744 132 q 394 -20 565 -20 q 251 -4 323 -20 q 107 41 179 10 l 107 187 q 254 114 184 137 q 394 91 323 91 q 555 137 497 91 q 613 267 613 184 q 573 383 613 343 q 435 445 533 423 l 362 462 q 157 558 221 494 q 94 731 94 623 q 185 949 94 867 q 427 1031 276 1031 q 550 1017 485 1031 q 686 978 614 1004 m 353 1109 l 211 1289 l 305 1289 l 417 1168 l 530 1289 l 625 1289 l 482 1109 l 353 1109 "},"˛":{"x_min":285,"x_max":538,"ha":836,"o":"m 358 0 l 439 0 q 393 -71 408 -41 q 379 -122 379 -101 q 397 -169 379 -153 q 453 -185 416 -185 q 495 -180 474 -185 q 538 -165 516 -175 l 538 -254 q 489 -264 512 -261 q 445 -268 466 -268 q 324 -238 363 -268 q 285 -145 285 -208 q 302 -77 285 -113 q 358 0 320 -42 "},"ð":{"x_min":93,"x_max":743,"ha":836,"o":"m 486 899 q 681 627 619 755 q 743 362 743 498 q 657 80 743 180 q 417 -20 572 -20 q 178 80 263 -20 q 93 362 93 180 q 178 642 93 542 q 415 743 263 743 q 449 742 438 743 q 471 740 461 741 q 425 800 449 770 q 374 861 400 831 l 185 798 l 165 865 l 326 919 l 202 1055 l 351 1055 l 437 956 l 633 1020 l 655 953 l 486 899 m 537 622 q 486 635 513 631 q 427 640 458 640 q 276 568 328 640 q 225 362 225 497 q 275 157 225 229 q 417 86 325 86 q 560 157 510 86 q 611 362 611 229 q 591 506 611 437 q 537 622 571 574 "},"ş":{"x_min":144,"x_max":698,"ha":836,"o":"m 659 734 l 659 612 q 551 658 605 643 q 440 674 497 674 q 314 646 356 674 q 273 562 273 619 q 304 486 273 511 q 459 437 335 461 l 509 428 q 650 357 602 410 q 698 219 698 304 q 617 43 698 107 q 395 -20 537 -20 q 277 -8 339 -20 q 144 27 215 3 l 144 156 q 277 102 213 120 q 398 84 341 84 q 526 117 481 84 q 572 211 572 151 q 405 332 572 298 l 400 333 l 353 343 q 196 414 245 364 q 147 550 147 463 q 220 718 147 659 q 431 778 294 778 q 548 767 492 778 q 659 734 604 756 m 475 0 q 531 -77 513 -42 q 549 -145 549 -113 q 508 -237 549 -206 q 387 -268 467 -268 q 327 -263 356 -268 q 268 -251 297 -259 l 268 -163 q 316 -179 291 -174 q 374 -185 342 -185 q 434 -168 413 -185 q 455 -121 455 -152 q 440 -71 455 -100 q 395 0 425 -41 l 475 0 "},"ı":{"x_min":120,"x_max":741,"ha":836,"o":"m 173 760 l 493 760 l 493 97 l 741 97 l 741 0 l 120 0 l 120 97 l 368 97 l 368 663 l 173 663 l 173 760 "},"Ć":{"x_min":94,"x_max":727,"ha":836,"o":"m 727 36 q 619 -6 674 8 q 503 -20 565 -20 q 201 117 308 -20 q 94 505 94 255 q 202 892 94 753 q 503 1031 310 1031 q 619 1017 565 1031 q 727 975 674 1003 l 727 835 q 619 898 676 876 q 503 920 561 920 q 303 816 369 920 q 237 505 237 713 q 303 194 237 297 q 503 91 369 91 q 620 112 562 91 q 727 176 677 134 l 727 36 m 516 1288 l 643 1288 l 487 1109 l 383 1109 l 516 1288 "},"ä":{"x_min":90,"x_max":718,"ha":836,"o":"m 476 382 l 434 382 q 270 343 325 382 q 215 228 215 305 q 256 122 215 160 q 371 84 297 84 q 533 155 474 84 q 593 354 592 227 l 593 382 l 476 382 m 718 433 l 718 0 l 593 0 l 593 111 q 492 12 552 44 q 344 -20 431 -20 q 159 45 228 -20 q 90 221 90 111 q 175 414 90 348 q 425 480 260 480 l 593 480 l 593 499 q 546 631 592 590 q 401 672 501 672 q 272 653 337 672 q 146 600 207 635 l 146 725 q 278 764 215 751 q 401 778 341 778 q 562 750 495 778 q 670 666 629 722 q 707 583 696 632 q 718 433 718 533 m 216 1053 l 354 1053 l 354 916 l 216 916 l 216 1053 m 482 1053 l 619 1053 l 619 916 l 482 916 l 482 1053 "},"¹":{"x_min":234,"x_max":621,"ha":836,"o":"m 246 528 l 385 528 l 385 942 l 234 914 l 234 993 l 389 1019 l 483 1019 l 483 528 l 621 528 l 621 453 l 246 453 l 246 528 "},"£":{"x_min":94,"x_max":754,"ha":836,"o":"m 740 992 l 740 867 q 655 912 698 897 q 566 927 612 927 q 432 866 475 927 q 390 674 390 805 l 390 527 l 642 527 l 642 430 l 390 430 l 390 115 l 754 115 l 754 0 l 94 0 l 94 115 l 254 115 l 254 430 l 119 430 l 119 527 l 254 527 l 254 688 q 328 946 254 861 q 553 1031 402 1031 q 644 1021 597 1031 q 740 992 690 1011 "},"W":{"x_min":0,"x_max":836,"ha":836,"o":"m 0 1013 l 133 1013 l 230 190 l 345 735 l 488 735 l 605 189 l 702 1013 l 836 1013 l 684 0 l 555 0 l 417 601 l 280 0 l 151 0 l 0 1013 "},"Ğ":{"x_min":69,"x_max":749,"ha":836,"o":"m 749 82 q 625 6 694 32 q 476 -20 556 -20 q 176 118 283 -20 q 69 505 69 256 q 177 892 69 753 q 479 1031 286 1031 q 601 1012 543 1031 q 714 958 659 994 l 714 818 q 601 895 659 870 q 479 920 543 920 q 278 816 345 920 q 212 505 212 712 q 276 192 212 294 q 476 91 341 91 q 555 101 521 91 q 618 134 590 112 l 618 406 l 471 406 l 471 519 l 749 519 l 749 82 m 206 1289 l 287 1289 q 328 1233 295 1252 q 418 1214 362 1214 q 507 1232 474 1214 q 550 1289 539 1251 l 631 1289 q 569 1166 623 1208 q 418 1125 515 1125 q 267 1166 320 1125 q 206 1289 213 1207 "},"v":{"x_min":68,"x_max":769,"ha":836,"o":"m 68 760 l 197 760 l 418 122 l 639 760 l 769 760 l 498 0 l 338 0 l 68 760 "},">":{"x_min":60,"x_max":777,"ha":836,"o":"m 60 651 l 60 775 l 777 491 l 777 378 l 60 95 l 60 219 l 636 434 l 60 651 "},"û":{"x_min":132,"x_max":713,"ha":836,"o":"m 132 287 l 132 758 l 257 758 l 257 287 q 293 137 257 185 q 405 89 329 89 q 541 151 494 89 q 588 328 588 213 l 588 758 l 713 758 l 713 0 l 588 0 l 588 114 q 497 14 554 48 q 363 -20 439 -20 q 189 56 246 -20 q 132 287 132 132 m 367 1111 l 467 1111 l 634 856 l 539 856 l 417 1022 l 295 856 l 201 856 l 367 1111 "},"Ð":{"x_min":5,"x_max":747,"ha":836,"o":"m 295 1013 q 637 889 527 1013 q 747 505 747 766 q 636 123 747 246 q 295 0 526 0 l 90 0 l 90 481 l 5 481 l 5 582 l 90 582 l 90 1013 l 295 1013 m 295 113 q 536 198 468 113 q 605 505 605 283 q 536 814 605 729 q 295 900 468 900 l 230 900 l 230 582 l 409 582 l 409 481 l 230 481 l 230 113 l 295 113 "},"r":{"x_min":246,"x_max":784,"ha":836,"o":"m 784 603 q 702 648 743 634 q 611 663 661 663 q 432 589 494 663 q 371 377 371 516 l 371 0 l 246 0 l 246 760 l 371 760 l 371 611 q 467 734 402 691 q 620 778 531 778 q 707 766 667 778 q 784 731 747 755 l 784 603 "},"Č":{"x_min":94,"x_max":727,"ha":836,"o":"m 727 36 q 619 -6 674 8 q 503 -20 565 -20 q 201 117 308 -20 q 94 505 94 255 q 202 892 94 753 q 503 1031 310 1031 q 619 1017 565 1031 q 727 975 674 1003 l 727 835 q 619 898 676 876 q 503 920 561 920 q 303 816 369 920 q 237 505 237 713 q 303 194 237 297 q 503 91 369 91 q 620 112 562 91 q 727 176 677 134 l 727 36 m 414 1109 l 272 1289 l 366 1289 l 478 1168 l 591 1289 l 686 1289 l 543 1109 l 414 1109 "},"x":{"x_min":52,"x_max":785,"ha":836,"o":"m 759 760 l 486 396 l 785 0 l 640 0 l 418 304 l 196 0 l 52 0 l 350 396 l 78 760 l 216 760 l 418 485 l 618 760 l 759 760 "},"è":{"x_min":83,"x_max":754,"ha":836,"o":"m 754 411 l 754 350 l 213 350 l 213 345 q 278 153 213 221 q 460 86 342 86 q 585 105 520 86 q 725 163 651 124 l 725 39 q 587 -5 653 9 q 459 -20 521 -20 q 182 86 282 -20 q 83 379 83 192 q 180 669 83 560 q 441 778 278 778 q 670 679 586 778 q 754 411 754 581 m 629 448 q 577 614 626 557 q 435 672 527 672 q 287 612 345 672 q 218 447 228 552 l 629 448 m 333 1111 l 524 856 l 419 856 l 199 1111 l 333 1111 "},"Ø":{"x_min":5.40625,"x_max":813.96875,"ha":836,"o":"m 251 205 q 316 121 271 152 q 417 91 360 91 q 568 186 522 91 q 614 505 614 281 q 610 626 614 579 q 600 702 607 672 l 251 205 m 228 319 l 571 807 q 515 891 554 862 q 417 920 476 920 q 266 820 311 920 q 222 465 222 721 q 223 376 222 410 q 228 319 225 342 m 700 846 q 742 703 727 791 q 757 505 757 615 q 673 110 757 240 q 417 -20 589 -20 q 274 7 335 -20 q 171 89 213 34 l 74 -47 l 5 0 l 125 170 q 91 308 104 219 q 79 505 79 397 q 162 900 79 770 q 417 1031 246 1031 q 554 1003 495 1031 q 651 921 613 975 l 746 1057 l 813 1007 l 700 846 "},"÷":{"x_min":60,"x_max":776,"ha":836,"o":"m 335 268 l 501 268 l 501 102 l 335 102 l 335 268 m 335 770 l 501 770 l 501 603 l 335 603 l 335 770 m 60 493 l 776 493 l 776 378 l 60 378 l 60 493 "},"h":{"x_min":132,"x_max":713,"ha":836,"o":"m 713 470 l 713 0 l 588 0 l 588 470 q 551 620 588 572 q 439 669 515 669 q 304 606 351 669 q 257 429 257 544 l 257 0 l 132 0 l 132 1055 l 257 1055 l 257 645 q 347 744 290 710 q 482 778 404 778 q 655 701 598 778 q 713 470 713 625 "},".":{"x_min":332,"x_max":503,"ha":836,"o":"m 332 207 l 503 207 l 503 0 l 332 0 l 332 207 "},"f":{"x_min":132,"x_max":721,"ha":836,"o":"m 721 1055 l 721 951 l 579 951 q 486 923 512 951 q 460 826 460 896 l 460 760 l 721 760 l 721 663 l 460 663 l 460 0 l 335 0 l 335 663 l 132 663 l 132 760 l 335 760 l 335 812 q 392 996 335 937 q 571 1055 449 1055 l 721 1055 "},"“":{"x_min":144,"x_max":693,"ha":836,"o":"m 627 656 l 456 656 l 456 796 l 589 1055 l 693 1055 l 627 796 l 627 656 m 316 656 l 144 656 l 144 796 l 278 1055 l 382 1055 l 316 796 l 316 656 "},"A":{"x_min":25,"x_max":811,"ha":836,"o":"m 417 892 l 273 374 l 562 374 l 417 892 m 334 1013 l 501 1013 l 811 0 l 669 0 l 594 264 l 239 264 l 166 0 l 25 0 l 334 1013 "},"O":{"x_min":79,"x_max":757,"ha":836,"o":"m 614 505 q 568 824 614 728 q 417 920 522 920 q 267 824 313 920 q 222 505 222 728 q 267 186 222 282 q 417 91 313 91 q 568 186 522 91 q 614 505 614 281 m 757 505 q 673 110 757 240 q 417 -20 589 -20 q 162 109 245 -20 q 79 505 79 239 q 162 900 79 770 q 417 1031 246 1031 q 673 900 589 1031 q 757 505 757 770 "},"π":{"x_min":54.171875,"x_max":801,"ha":836,"o":"m 54 746 l 782 746 l 782 646 l 686 646 l 686 168 q 702 98 686 119 q 756 77 719 77 q 781 78 766 77 q 801 81 796 80 l 801 -9 q 752 -22 777 -18 q 702 -26 727 -26 q 594 18 625 -26 q 563 182 563 62 l 563 646 l 273 646 l 273 0 l 151 0 l 151 646 l 54 646 l 54 746 "},"‘":{"x_min":314,"x_max":551,"ha":836,"o":"m 485 656 l 314 656 l 314 796 l 447 1055 l 551 1055 l 485 796 l 485 656 "},"3":{"x_min":93,"x_max":732,"ha":836,"o":"m 525 542 q 678 448 625 515 q 732 279 732 380 q 638 59 732 139 q 377 -20 544 -20 q 235 -7 308 -20 q 93 30 162 5 l 93 166 q 229 112 162 130 q 362 95 296 95 q 535 145 475 95 q 596 292 596 196 q 535 433 596 381 q 372 485 475 485 l 268 485 l 268 598 l 372 598 q 519 639 466 598 q 572 754 572 680 q 522 874 572 832 q 383 916 473 916 q 258 902 322 916 q 124 862 194 889 l 124 988 q 270 1020 205 1009 q 383 1031 334 1031 q 619 956 531 1031 q 708 759 708 882 q 661 620 708 676 q 525 542 614 565 "},"9":{"x_min":86,"x_max":742,"ha":836,"o":"m 403 448 q 541 511 491 448 q 591 686 591 574 q 541 860 591 797 q 403 924 491 924 q 267 863 313 924 q 221 686 221 803 q 266 507 221 567 q 403 448 312 448 m 160 21 l 160 147 q 250 108 202 121 q 351 95 299 95 q 548 192 481 95 q 615 481 615 290 q 525 377 583 413 q 393 341 467 341 q 166 431 246 341 q 86 687 86 521 q 168 941 86 851 q 401 1031 250 1031 q 659 904 577 1031 q 742 505 742 777 q 643 114 742 249 q 356 -20 544 -20 q 257 -9 307 -20 q 160 21 206 1 "},"l":{"x_min":109,"x_max":702,"ha":836,"o":"m 434 273 q 464 148 434 190 q 556 106 495 106 l 702 106 l 702 0 l 543 0 q 370 71 431 0 q 309 273 309 143 l 309 957 l 109 957 l 109 1055 l 434 1055 l 434 273 "},"4":{"x_min":69,"x_max":770,"ha":836,"o":"m 499 888 l 179 353 l 499 353 l 499 888 m 476 1013 l 635 1013 l 635 353 l 770 353 l 770 242 l 635 242 l 635 0 l 499 0 l 499 242 l 69 242 l 69 371 l 476 1013 "},"Ü":{"x_min":100,"x_max":736,"ha":836,"o":"m 100 388 l 100 1013 l 238 1013 l 238 325 q 242 220 238 251 q 256 171 246 188 q 318 111 277 131 q 418 91 359 91 q 517 111 477 91 q 580 171 558 131 q 594 220 590 188 q 599 324 599 251 l 599 388 l 599 1013 l 736 1013 l 736 388 q 716 167 736 233 q 649 59 697 102 q 547 0 605 19 q 418 -20 489 -20 q 289 0 346 -20 q 186 59 231 19 q 119 168 139 101 q 100 388 100 235 m 216 1269 l 354 1269 l 354 1131 l 216 1131 l 216 1269 m 482 1269 l 619 1269 l 619 1131 l 482 1131 l 482 1269 "},"à":{"x_min":90,"x_max":718,"ha":836,"o":"m 476 382 l 434 382 q 270 343 325 382 q 215 228 215 305 q 256 122 215 160 q 371 84 297 84 q 533 155 474 84 q 593 354 592 227 l 593 382 l 476 382 m 718 433 l 718 0 l 593 0 l 593 111 q 492 12 552 44 q 344 -20 431 -20 q 159 45 228 -20 q 90 221 90 111 q 175 414 90 348 q 425 480 260 480 l 593 480 l 593 499 q 546 631 592 590 q 401 672 501 672 q 272 653 337 672 q 146 600 207 635 l 146 725 q 278 764 215 751 q 401 778 341 778 q 562 750 495 778 q 670 666 629 722 q 707 583 696 632 q 718 433 718 533 m 323 1111 l 514 856 l 409 856 l 189 1111 l 323 1111 "},"ó":{"x_min":93,"x_max":743,"ha":836,"o":"m 417 672 q 273 598 322 672 q 225 379 225 524 q 273 160 225 234 q 417 86 322 86 q 562 160 513 86 q 611 379 611 234 q 562 598 611 524 q 417 672 513 672 m 417 778 q 659 675 575 778 q 743 379 743 573 q 659 82 743 184 q 417 -20 576 -20 q 176 82 259 -20 q 93 379 93 184 q 176 675 93 573 q 417 778 259 778 m 512 1111 l 647 1111 l 426 856 l 322 856 l 512 1111 "}}}
